<?xml version="1.0" encoding="utf-8"?>
<svg xmlns="http://www.w3.org/2000/svg" xmlns:xlink="http://www.w3.org/1999/xlink" version= "1.1" width="595px" height="425px" viewBox="212 979 595 425">
<g id="layer1">
<g style="fill:rgb(0,174,199); fill-opacity:1.0; stroke-linejoin: miter">
<path d="M211.999,978.6433C211.90466,978.6433,211.8142,978.6808,211.74748,978.7475C211.68077,978.8142,211.64331,978.90466,211.64331,978.999L211.64432,1404.0C211.64432,1404.1964,211.80356,1404.3557,212.0,1404.3557L807.001,1404.3567C807.09534,1404.3567,807.1858,1404.3191,807.2525,1404.2524C807.3192,1404.1858,807.3567,1404.0953,807.3567,1404.001L807.3557,979.0C807.3557,978.8036,807.1964,978.6443,807.0,978.6443L211.999,978.6433 Z"/>
</g>
</g>
<g id="layer2">
<g style="fill:rgb(235,240,243); fill-opacity:1.0; stroke-linejoin: miter">
<path d="M365.5373,1280.4386C364.55804,1290.6849,372.63525,1299.3279,382.67786,1299.3071L505.02075,1299.055C499.66492,1287.6083,499.6413,1276.1511,504.9502,1264.6824L383.37323,1264.9341C374.40247,1264.9524,366.39014,1271.5094,365.5373,1280.4386 Z"/>
</g>
<g style="fill:rgb(0,0,0); fill-opacity:0.36862746; stroke-linejoin: miter">
<path d="M764.39825,1353.2194L762.17096,1353.6696Q750.73773,1354.4022,744.8365,1354.5165Q736.79913,1354.7787,725.74945,1355.0138Q703.6502,1355.4843,669.502,1355.8468Q635.1175,1356.2094,595.3057,1356.38Q575.39984,1356.4655,554.13715,1356.503Q544.3538,1356.5519,487.29645,1356.5082Q465.06165,1356.4603,444.80548,1356.3715Q395.89642,1356.1134,388.48895,1356.0126Q353.91254,1355.712,327.2506,1355.2474Q267.72382,1354.1237,277.8106,1352.9117Q282.24414,1352.3082,299.76038,1351.7982Q308.5185,1351.5433,320.54724,1351.3116Q324.7113,1351.1786,363.60504,1350.6752Q428.2433,1349.9315,520.4049,1349.9Q576.5007,1349.9586,585.6556,1350.0238Q606.11566,1350.0985,624.85565,1350.2177Q662.3354,1350.4559,692.93427,1350.8722Q708.2337,1351.0802,720.2625,1351.3119Q747.4727,1351.9113,748.9899,1352.0592Q763.2354,1352.5924,764.39825,1353.2194"/>
</g>
<g style="fill:rgb(86,31,28); fill-opacity:1.0; stroke-linejoin: miter">
<path d="M594.30707,1341.2236L534.66626,1341.4966L534.62915,1333.3636C534.62213,1331.8662,535.8306,1330.6472,537.3275,1330.6401L591.5465,1330.3923C593.0438,1330.3854,594.2632,1331.5938,594.2699,1333.0905L594.30707,1341.2236 Z"/>
</g>
<g style="fill:rgb(90,73,57); fill-opacity:1.0; stroke-linejoin: miter">
<path d="M599.7665,1349.3319L529.28143,1349.654L529.2566,1344.232C529.24304,1341.2375,531.6591,1338.7988,534.65393,1338.7849L594.295,1338.5127C597.28986,1338.4989,599.7283,1340.9146,599.74194,1343.9095L599.76685,1349.3319 Z"/>
</g>
<g style="fill:rgb(252,184,38); fill-opacity:1.0; stroke-linejoin: miter">
<path d="M599.779,1352.0428L529.2938,1352.3651C527.79663,1352.3715,526.5775,1351.163,526.5707,1349.6661L526.5707,1349.6664C526.5638,1348.169,527.77216,1346.9498,529.269,1346.9427L599.75397,1346.621C601.2513,1346.614,602.47034,1347.822,602.47723,1349.3191L602.47723,1349.3193C602.48425,1350.8167,601.2759,1352.0359,599.779,1352.0428 Z"/>
</g>
<g style="fill:rgb(86,31,28); fill-opacity:1.0; stroke-linejoin: miter">
<path d="M583.26855,1326.6725L572.0381,1320.3256L560.8077,1313.9783Q581.4673,1277.4231,602.1268,1240.8667Q613.35724,1247.2134,624.58765,1253.5609Q603.9283,1290.1167,583.26855,1326.6725"/>
</g>
<g style="fill:rgb(86,31,28); fill-opacity:1.0; stroke-linejoin: miter">
<path d="M616.9527,1288.5514L608.1125,1304.163C607.29877,1305.5999,605.4738,1306.1053,604.0371,1305.2915L593.62946,1299.398L605.4167,1278.5822L615.82416,1284.476C617.2609,1285.2898,617.76624,1287.1143,616.9527,1288.5514 Z"/>
</g>
<g style="fill:rgb(236,154,94); fill-opacity:1.0; stroke-linejoin: miter">
<path d="M597.3597,1304.9468L597.3599,1304.9463C596.5456,1306.3838,594.7212,1306.8892,593.2845,1306.0756L572.4687,1294.288C571.0316,1293.4741,570.5264,1291.6497,571.34015,1290.2128L571.3405,1290.2125C572.154,1288.7756,573.9787,1288.2704,575.4154,1289.0842L596.2312,1300.8715C597.6682,1301.6854,598.1736,1303.5101,597.3597,1304.9468 Z"/>
</g>
<g style="fill:rgb(236,154,94); fill-opacity:1.0; stroke-linejoin: miter">
<path d="M612.09344,1278.9271L612.0938,1278.9269C611.2794,1280.364,609.45465,1280.8693,608.018,1280.0554L587.2025,1268.2683C585.7654,1267.4548,585.2601,1265.6302,586.0742,1264.1934L586.07446,1264.1934C586.88776,1262.7561,588.71234,1262.2511,590.1493,1263.0645L610.9648,1274.8516C612.40234,1275.6656,612.9075,1277.4901,612.09344,1278.9271 Z"/>
</g>
<g style="fill:rgb(86,31,28); fill-opacity:1.0; stroke-linejoin: miter">
<path d="M590.7763,1328.7095L590.77673,1328.7092C589.1492,1331.5829,585.4998,1332.5934,582.626,1330.9664L556.6063,1316.2323C553.73254,1314.6052,552.722,1310.9558,554.3491,1308.0818L554.34937,1308.0818C555.9764,1305.2081,559.62585,1304.1975,562.5,1305.8246L588.5193,1320.5588C591.39294,1322.186,592.4037,1325.8353,590.7763,1328.7095 Z"/>
</g>
<g style="fill:rgb(86,31,28); fill-opacity:1.0; stroke-linejoin: miter">
<path d="M629.0847,1261.0586L629.0852,1261.0583C627.4572,1263.9321,623.8081,1264.943,620.93396,1263.3154L594.9146,1248.5812C592.04083,1246.9542,591.03046,1243.3053,592.6576,1240.4312L592.65784,1240.4309C594.2849,1237.5568,597.9341,1236.5463,600.80817,1238.1733L626.8277,1252.9078C629.7017,1254.5356,630.7124,1258.1847,629.0847,1261.0586 Z"/>
</g>
<g style="fill:rgb(90,73,57); fill-opacity:1.0; stroke-linejoin: miter">
<path d="M589.9926,1317.9565L589.9929,1317.9565C589.1788,1319.3937,587.3541,1319.899,585.9174,1319.0851L565.1015,1307.2977C563.6647,1306.4841,563.1593,1304.6594,563.9729,1303.2225L563.9734,1303.2228C564.78674,1301.7858,566.6116,1301.28,568.04816,1302.094L588.8642,1313.8809C590.30115,1314.6948,590.80634,1316.5193,589.9926,1317.9565 Z"/>
</g>
<g style="fill:rgb(90,73,57); fill-opacity:1.0; stroke-linejoin: miter">
<path d="M619.461,1265.9176L619.46124,1265.9176C618.6471,1267.3549,616.8223,1267.8599,615.38556,1267.0461L594.56995,1255.2587C593.13306,1254.4454,592.62756,1252.6204,593.44135,1251.1833L593.4417,1251.1833C594.2552,1249.7466,596.07965,1249.2413,597.5166,1250.0547L618.3324,1261.8422C619.769,1262.6559,620.27435,1264.4806,619.461,1265.9176 Z"/>
</g>
<g style="fill:rgb(236,154,94); fill-opacity:1.0; stroke-linejoin: miter">
<path d="M631.5463,1321.5934L658.6791,1324.3763L685.8116,1327.1595L631.5463,1321.5934"/>
</g>
<g style="fill:rgb(86,31,28); fill-opacity:1.0; stroke-linejoin: miter">
<path d="M694.9743,1353.3499C697.0254,1354.5118,699.4472,1354.9261,701.73517,1354.3588C704.69293,1353.6243,707.04956,1351.4944,708.0843,1348.5315C708.4933,1347.3612,708.6442,1346.1082,708.52594,1344.8739C708.23566,1341.8527,706.5583,1339.2914,704.00256,1337.8453L614.3518,1287.0785L605.5114,1302.6897L694.9743,1353.3499 Z"/>
</g>
<g style="fill:rgb(180,97,53); fill-opacity:1.0; stroke-linejoin: miter">
<path d="M491.6515,1346.4396C501.69397,1346.4188,509.7354,1337.7427,508.71417,1327.5002C507.82465,1318.5746,499.78467,1312.0507,490.81458,1312.0687L368.62518,1312.3213C366.84198,1312.3242,365.3935,1310.8821,365.38965,1309.0986L365.3897,1309.0991C365.3861,1307.3156,366.82867,1305.8672,368.61194,1305.8633L490.57764,1305.6125C503.5246,1305.5856,514.8345,1315.5391,515.2493,1328.4789C515.6787,1341.8683,504.96582,1352.8721,491.66644,1352.8992L368.7094,1353.1527C366.92615,1353.1564,365.47766,1351.7136,365.474,1349.9308L365.474,1349.9285C365.47034,1348.1456,366.91284,1346.697,368.6961,1346.6934L491.65143,1346.4403 Z"/>
</g>
<g style="fill:rgb(235,240,243); fill-opacity:1.0; stroke-linejoin: miter">
<path d="M508.71417,1327.5005C509.73572,1337.7427,501.69397,1346.4191,491.6515,1346.4396L369.30878,1346.6923C374.6175,1335.2234,374.59387,1323.7664,369.2379,1312.3197L490.8144,1312.0692C499.78528,1312.0511,507.82465,1318.5746,508.71417,1327.5005 Z"/>
</g>
<g style="fill:rgb(225,230,233); fill-opacity:1.0; stroke-linejoin: miter">
<path d="M498.1488,1319.8948L372.03473,1320.1549C371.91882,1319.7002,371.768,1319.2468,371.63562,1318.7935L498.146,1318.5331L498.1488,1319.8948 Z"/>
</g>
<g style="fill:rgb(225,230,233); fill-opacity:1.0; stroke-linejoin: miter">
<path d="M498.15906,1324.9067L373.0077,1325.1648C372.95276,1324.71,372.83765,1324.256,372.76678,1323.8029L498.15613,1323.5443L498.15906,1324.9067 Z"/>
</g>
<g style="fill:rgb(225,230,233); fill-opacity:1.0; stroke-linejoin: miter">
<path d="M498.1693,1329.9209L373.23468,1330.179C373.24255,1329.7242,373.2417,1329.2701,373.23187,1328.8165L498.1665,1328.5598L498.1693,1329.9209 Z"/>
</g>
<g style="fill:rgb(225,230,233); fill-opacity:1.0; stroke-linejoin: miter">
<path d="M498.17957,1334.9362L372.79022,1335.1942C372.85907,1334.7397,372.9726,1334.285,373.0255,1333.8319L498.17682,1333.574L498.17957,1334.9362 Z"/>
</g>
<g style="fill:rgb(225,230,233); fill-opacity:1.0; stroke-linejoin: miter">
<path d="M498.18982,1339.9484L371.67975,1340.2096C371.81055,1339.7542,371.95923,1339.2997,372.0733,1338.8461L498.18707,1338.5868L498.18982,1339.9484 Z"/>
</g>
<g style="fill:rgb(86,31,28); fill-opacity:1.0; stroke-linejoin: miter">
<path d="M462.85092,1250.8777L410.60175,1251.1167L410.56915,1243.9917C410.56305,1242.6797,411.62177,1241.6118,412.9331,1241.6057L460.43253,1241.3884C461.74423,1241.3823,462.81247,1242.4409,462.8184,1243.7522L462.85092,1250.8777 Z"/>
</g>
<g style="fill:rgb(90,73,57); fill-opacity:1.0; stroke-linejoin: miter">
<path d="M467.63376,1257.981L405.8842,1258.2632L405.86252,1253.5132C405.85056,1250.8901,407.96725,1248.7537,410.59094,1248.741L462.8403,1248.5029C465.46408,1248.4902,467.60025,1250.6067,467.6122,1253.2307L467.63406,1257.981 Z"/>
</g>
<g style="fill:rgb(252,184,38); fill-opacity:1.0; stroke-linejoin: miter">
<path d="M467.64462,1260.356L405.895,1260.6384C404.5834,1260.6438,403.51535,1259.5852,403.50937,1258.2737L403.50937,1258.2739C403.50333,1256.9622,404.56198,1255.8943,405.87332,1255.8882L467.62277,1255.6062C468.93454,1255.6001,470.00247,1256.6582,470.0085,1257.9695L470.0085,1257.9697C470.01462,1259.2815,468.95596,1260.3501,467.64462,1260.356 Z"/>
</g>
<g style="fill:rgb(86,31,28); fill-opacity:1.0; stroke-linejoin: miter">
<path d="M430.74707,1136.1067L436.35236,1136.1067L441.95758,1136.1077Q441.95758,1189.5403,441.95758,1242.9731Q436.35236,1242.9734,430.74713,1242.9739Q430.74707,1189.5403,430.74707,1136.1067"/>
</g>
<g style="fill:rgb(86,31,28); fill-opacity:1.0; stroke-linejoin: miter">
<path d="M363.3783,1126.8325L436.35236,1126.833L509.32642,1126.8337Q509.32642,1130.1328,509.32642,1133.4326Q436.35236,1133.4329,363.3783,1133.4331Q363.3783,1130.1326,363.3783,1126.8325"/>
</g>
<g>
<g style="fill:rgb(99,112,121); fill-opacity:1.0; stroke-linejoin: miter">
<path d="M507.06256,1133.1208L507.06256,1133.1208L507.06256,1133.1211C507.0722,1133.2942,507.04895,1133.4675,506.99402,1133.6321L506.99402,1133.6321L489.00705,1187.5928C488.7667,1188.314,487.9872,1188.7041,487.26608,1188.4639C486.545,1188.2231,486.1553,1187.4436,486.39572,1186.7224L486.39572,1186.7224L504.38275,1132.7617L504.3141,1133.2727L504.3141,1133.2725C504.27228,1132.5137,504.85358,1131.8643,505.61255,1131.8225C506.37152,1131.7808,507.0207,1132.362,507.06256,1133.1208 Z"/>
</g>
<g style="fill:rgb(99,112,121); fill-opacity:1.0; stroke-linejoin: miter">
<path d="M507.06256,1133.1208L507.06256,1133.1208L507.06256,1133.1211C507.06403,1133.146,507.06476,1133.1716,507.06476,1133.197L507.06476,1133.197L507.0647,1187.1577C507.0647,1187.918,506.44843,1188.5344,505.68835,1188.5339C504.92822,1188.5339,504.31207,1187.918,504.31207,1187.1577L504.31207,1187.1577L504.31207,1133.197L504.3141,1133.2727L504.3141,1133.2725C504.27228,1132.5137,504.85358,1131.8643,505.61255,1131.8225C506.37152,1131.7808,507.0207,1132.362,507.06256,1133.1208 Z"/>
</g>
<g style="fill:rgb(99,112,121); fill-opacity:1.0; stroke-linejoin: miter">
<path d="M507.06256,1133.1208L507.06256,1133.1208L507.06256,1133.1211L506.99408,1132.7617L524.9811,1186.7227C525.2215,1187.4436,524.8317,1188.2231,524.1106,1188.4639C523.3896,1188.7041,522.61,1188.314,522.3696,1187.593L522.3696,1187.593L504.38275,1133.6321C504.344,1133.5159,504.32098,1133.3953,504.3141,1133.2727L504.3141,1133.2727L504.3141,1133.2725C504.27228,1132.5137,504.85358,1131.8643,505.61255,1131.8225C506.37152,1131.7808,507.0207,1132.362,507.06256,1133.1208 Z"/>
</g>
</g>
<g style="fill:rgb(252,184,38); fill-opacity:1.0; stroke-linejoin: miter">
<path d="M538.1668,1188.0615L473.2098,1188.0618Q476.2274,1199.362,485.98166,1206.9631Q495.39752,1213.3176,505.80945,1213.2397Q517.3723,1213.2529,526.3585,1206.114Q534.9266,1199.7595,538.1668,1188.0615 Z"/>
</g>
<g style="fill:rgb(86,31,28); fill-opacity:1.0; stroke-linejoin: miter">
<path d="M456.61948,1138.6997L456.43454,1141.45Q455.11917,1149.761,448.73694,1154.7441Q442.3106,1159.7229,433.6021,1158.782Q425.29095,1157.4668,420.30804,1151.0842Q418.71143,1149.0217,417.6778,1146.5886L416.80908,1144.0876Q416.09314,1141.5061,416.08508,1138.6997Q416.30237,1130.0872,422.02124,1124.3687Q427.74,1118.6499,436.3523,1118.4321Q444.96466,1118.6499,450.68335,1124.3687Q456.40213,1130.0874,456.61948,1138.6997"/>
</g>
<g>
<g style="fill:rgb(99,112,121); fill-opacity:1.0; stroke-linejoin: miter">
<path d="M367.72354,1132.0603L367.72354,1132.0603L367.72354,1132.0608C367.73312,1132.2339,367.70975,1132.4072,367.655,1132.5718L367.655,1132.5718L349.66797,1186.5325C349.4276,1187.2539,348.64813,1187.6438,347.927,1187.4033C347.20593,1187.1628,346.81628,1186.3835,347.05658,1185.6624L347.05658,1185.6624L365.04364,1131.7017L364.97504,1132.2124L364.97504,1132.2122C364.9331,1131.4531,365.51447,1130.804,366.27347,1130.7622C367.03244,1130.7202,367.68167,1131.3018,367.72354,1132.0603 Z"/>
</g>
<g style="fill:rgb(99,112,121); fill-opacity:1.0; stroke-linejoin: miter">
<path d="M367.72354,1132.0603L367.72354,1132.0603L367.72354,1132.0608C367.72495,1132.0859,367.72568,1132.1116,367.72568,1132.1365L367.72568,1132.1365L367.72562,1186.0977C367.72562,1186.8577,367.1094,1187.4739,366.34927,1187.4736C365.58914,1187.4736,364.97296,1186.8577,364.97296,1186.0977L364.97296,1186.0977L364.97296,1132.1367L364.97504,1132.2124L364.97504,1132.2122C364.9331,1131.4531,365.51447,1130.804,366.27347,1130.7622C367.03244,1130.7202,367.68167,1131.3018,367.72354,1132.0603 Z"/>
</g>
<g style="fill:rgb(99,112,121); fill-opacity:1.0; stroke-linejoin: miter">
<path d="M367.72354,1132.0603L367.72354,1132.0603L367.72354,1132.0608L367.655,1131.7017L385.642,1185.6624C385.88235,1186.3835,385.4927,1187.1628,384.77158,1187.4033C384.0505,1187.6438,383.27097,1187.2539,383.0306,1186.5327L383.0306,1186.5327L365.04352,1132.572C365.00482,1132.4558,364.9818,1132.335,364.97504,1132.2124L364.97504,1132.2124L364.97504,1132.2122C364.9331,1131.4531,365.51447,1130.804,366.27347,1130.7622C367.03244,1130.7202,367.68167,1131.3018,367.72354,1132.0603 Z"/>
</g>
</g>
<g style="fill:rgb(252,184,38); fill-opacity:1.0; stroke-linejoin: miter">
<path d="M398.8278,1187.0012L333.8709,1187.0017Q336.88843,1198.3018,346.64252,1205.9028Q356.05835,1212.2573,366.47037,1212.1794Q378.03317,1212.1924,387.0195,1205.0537Q395.58774,1198.699,398.8278,1187.0012 Z"/>
</g>
<g style="fill:rgb(86,31,28); fill-opacity:1.0; stroke-linejoin: miter">
<path d="M431.32812,1158.0757L430.56256,1160.2292Q429.0121,1164.4941,427.69238,1169.2651Q426.37268,1174.0359,425.5913,1179.9866Q425.21027,1182.9824,425.02142,1186.4001L424.89026,1189.9441L424.87134,1193.7339Q424.90997,1197.6501,425.14093,1201.9873Q425.94916,1217.1685,429.52655,1246.0801L434.62836,1247.4263L431.32812,1158.0757"/>
</g>
<g style="fill:rgb(86,31,28); fill-opacity:1.0; stroke-linejoin: miter">
<path d="M441.13678,1158.0757L441.90247,1160.2295Q443.45288,1164.4941,444.77258,1169.2651Q446.0923,1174.0359,446.87372,1179.9866Q447.25482,1182.9824,447.44354,1186.4001L447.57477,1189.9441L447.5938,1193.7339Q447.5551,1197.6501,447.32416,1201.9873Q446.5158,1217.1685,442.93854,1246.0801L437.83673,1247.4263L441.13678,1158.0757"/>
</g>
<g style="fill:rgb(86,31,28); fill-opacity:1.0; stroke-linejoin: miter">
<path d="M429.58978,1114.5251L429.58978,1114.5251L429.58978,1114.5251L429.58978,1114.5251L429.58978,1114.5251L429.58978,1114.5251L429.58978,1114.5251Q429.58978,1114.5251,429.58978,1114.5251"/>
</g>
<g style="fill:rgb(83,93,102); fill-opacity:1.0; stroke-linejoin: miter">
<path d="M382.67792,1299.3068C372.63525,1299.3279,364.55835,1290.6849,365.5373,1280.4386C366.39014,1271.5094,374.40308,1264.9519,383.37305,1264.9332L505.56287,1264.6815C507.3462,1264.6771,508.78857,1263.2285,508.78497,1261.4454L508.78503,1261.4454C508.78143,1259.6624,507.33276,1258.2203,505.54956,1258.2241L383.58344,1258.4758C370.63672,1258.5028,359.36786,1268.5023,359.0063,1281.444C358.63208,1294.8356,369.3902,1305.7944,382.6894,1305.7667L505.64685,1305.5131C507.4301,1305.5094,508.87268,1304.0608,508.86896,1302.2775L508.86896,1302.2756C508.86523,1300.4924,507.41693,1299.0503,505.63348,1299.0535L382.67786,1299.3079 Z"/>
</g>
<g style="fill:rgb(225,230,233); fill-opacity:1.0; stroke-linejoin: miter">
<path d="M376.07135,1272.789L502.1856,1272.529C502.2995,1272.0741,502.44855,1271.62,502.57892,1271.1658L376.06854,1271.4277L376.07135,1272.789 Z"/>
</g>
<g style="fill:rgb(225,230,233); fill-opacity:1.0; stroke-linejoin: miter">
<path d="M376.0818,1277.8013L501.23322,1277.543C501.28613,1277.0883,501.39978,1276.6338,501.46857,1276.1799L376.07898,1276.4393L376.0818,1277.8013 Z"/>
</g>
<g style="fill:rgb(225,230,233); fill-opacity:1.0; stroke-linejoin: miter">
<path d="M376.09198,1282.8154L501.02686,1282.5583C501.01715,1282.1035,501.01617,1281.6495,501.0241,1281.1954L376.0893,1281.454L376.09198,1282.8154 Z"/>
</g>
<g style="fill:rgb(225,230,233); fill-opacity:1.0; stroke-linejoin: miter">
<path d="M376.10242,1287.8309L501.49194,1287.572C501.42126,1287.1176,501.30597,1286.6632,501.2511,1286.2098L376.0996,1286.4691L376.10242,1287.8309 Z"/>
</g>
<g style="fill:rgb(225,230,233); fill-opacity:1.0; stroke-linejoin: miter">
<path d="M376.11285,1292.8434L502.62317,1292.5817C502.49048,1292.1273,502.33997,1291.6737,502.22412,1291.2203L376.10992,1291.4814L376.11285,1292.8434 Z"/>
</g>
<g style="fill:rgb(86,31,28); fill-opacity:1.0; stroke-linejoin: miter">
<path d="M444.28394,1286.7878L444.28394,1286.7881L444.28387,1286.7881L444.28394,1286.7878"/>
</g>
<g style="fill:rgb(86,31,28); fill-opacity:1.0; stroke-linejoin: miter">
<path d="M276.88666,1286.7878L276.88666,1286.7881L276.88672,1286.7881L276.88666,1286.7878"/>
</g>
<g style="fill:rgb(90,73,57); fill-opacity:1.0; stroke-linejoin: miter">
<path d="M451.4387,1138.6736L451.30093,1140.721Q450.86566,1143.471,449.68536,1145.7314L449.04865,1146.831Q448.3653,1147.9004,447.4958,1148.8469Q446.62616,1149.7937,445.5703,1150.6182Q443.44403,1152.2656,440.98212,1153.0425Q439.75116,1153.4307,438.43628,1153.6016Q437.8313,1153.823,434.30292,1153.6243Q432.92798,1153.4067,431.67535,1153.0029Q428.65082,1151.8301,428.1928,1151.3721Q426.05457,1150.0054,424.40588,1147.8938Q420.7248,1142.7852,421.3485,1137.2754Q421.62268,1134.5322,422.7058,1132.2146Q423.2475,1131.0557,423.99133,1130.0032Q424.24884,1129.3987,426.654,1127.1091Q430.65118,1123.7292,436.35034,1123.585Q439.19995,1123.6572,441.62408,1124.5381Q442.83612,1124.9788,443.94177,1125.6213Q444.5611,1125.8162,447.0194,1128.0046Q449.20764,1130.4629,449.4026,1131.0823Q450.04535,1132.188,450.48578,1133.4001Q451.36673,1135.824,451.4387,1138.6736"/>
</g>
<g style="fill:rgb(255,255,255); fill-opacity:0.10980392; stroke-linejoin: miter">
<path d="M501.38202,1200.8049L501.31433,1201.8105Q501.1006,1203.1611,500.52087,1204.2715Q500.23108,1204.8267,499.84973,1205.3215Q498.81635,1206.5066,498.49988,1206.6714Q497.45557,1207.4805,496.2464,1207.862Q495.64185,1208.053,494.99603,1208.1367Q494.6989,1208.2456,492.96597,1208.148Q491.6154,1207.9341,490.50516,1207.3545Q489.95004,1207.0647,489.455,1206.6833Q488.27005,1205.6499,488.10513,1205.3335Q486.2972,1202.8242,486.60355,1200.1182Q486.73825,1198.771,487.27023,1197.6328Q487.53622,1197.0635,487.90152,1196.5466Q488.02798,1196.2498,489.20926,1195.1252Q491.17245,1193.4653,493.97156,1193.3945Q495.3711,1193.4299,496.56165,1193.8625Q498.00415,1194.4902,498.22992,1194.7351Q498.7469,1195.1003,499.21155,1195.5652Q499.6762,1196.0298,500.0415,1196.5466Q500.86792,1197.8845,500.914,1198.2148Q501.34668,1199.4055,501.38202,1200.8049"/>
</g>
<g style="fill:rgb(255,255,255); fill-opacity:0.10980392; stroke-linejoin: miter">
<path d="M359.79913,1198.7554L359.7315,1199.761Q359.2456,1202.7644,356.99622,1204.5725Q354.596,1206.4487,351.38318,1206.0984Q348.58484,1205.6995,346.646,1203.46Q344.85345,1200.9656,344.97876,1198.6677Q345.08203,1195.5762,347.15356,1193.5347Q349.30212,1191.3884,352.38867,1191.345Q353.49915,1191.3308,354.97882,1191.813Q356.3086,1192.4053,356.48663,1192.5579Q357.13483,1193.023,357.62866,1193.5156Q358.46692,1194.2522,359.27216,1195.9688Q359.7389,1197.1677,359.79913,1198.7554"/>
</g>
</g>
</svg>