<?xml version='1.0' encoding='utf-8'?>
<svg xmlns="http://www.w3.org/2000/svg" version="1.1" viewBox="0 0 1080 2132"> <g fill="#00aec7"> <path d="m-112 404.27c-0.19343 0-0.37894 0.07685-0.51572 0.21363-0.13678 0.13678-0.21361 0.32229-0.21361 0.51572l1e-3 1304c0 0.4028 0.32653 0.7294 0.72933 0.7294l1304 9e-4c0.1935 0 0.379-0.0769 0.5157-0.2136s0.2136-0.3222 0.2136-0.5157l-9e-4 -1304c0-0.4028-0.3266-0.72934-0.7294-0.72934l-1304-0.00101z"/> </g> <g> <g fill="#c2c2c2"> <path d="m897.25 1080v0.0014-5e-4 -9e-4 0.0014-0.0014 9e-4q0-9e-4 0-9e-4z"/> </g> <g fill="#fff"> <path d="m1033.4 1062.2c0.9707-0.5062 5.0611 0.8547 12.388 1.8496 0.5527 0.0747 0.3323 0.4379 0.4275 0.7048 0.0649 0.1833-0.1682 0.5115 0.1814 0.5405 1.1753 0.0991 0.4468-1.5466 1.98-4.6103 0.011 0.1301 0.342 3.6652 0.2631 4.5876-0.0654 0.7627 0.6031 0.3555 4.1778 1.0994 0.9468 0.197 1.7546-0.1638 2.6289-0.1529 0.5752 0.0081 1.1787-0.4204 1.3525-0.8088 0.1675-0.3752-0.0112-0.1987 3.1177-0.4907 1.449-0.1345 1.4128-7e-4 1.665-1.2185 0.2312-1.116 0.3697-2.253 0.7459-3.3323 0.176 0.0305 0.1777 0.1548 0.1638 0.2576-0.1607 1.1924 0.2061 2.3408 0.2703 3.5136 0.0212 0.3885 0.2158 0.5738 0.5315 0.4905 0.934-0.2458 1.9172 0.2376 2.8291-0.2178 0.0349-0.0183 0.0876-0.0065 0.1311-0.0014 1.3843 0.1711 2.7783-0.0215 4.1394-0.1196 1.7822-0.1282 3.572 0.0942 5.3452-0.2122 2.7981-0.4834 1.8716 1.2639 3.3569-4.5017 0.0381-0.1504 0.0452-0.3067 0.3018-0.4622-0.1975 1.553 0.195 2.2596 0.1799 4.1106-0.0024 0.2859 0.1546 0.3416 0.3745 0.3311 0.8897-0.0432 1.7608 0.2138 2.6809-0.062 0.6653-0.2002 1.4353 0.0664 2.1624-0.0384 0.1299-0.0193 0.354 0.0655 0.4116 0.1692 0.5564 1.0139 1.8572 0.1968 2.2227 0.8282 0.3403 0.5881 1.0827 0.8581 1.7458 0.5817 1.0657-0.4446 22.14-2.1357 36.479-3.6701 1.4787-0.1582 2.4043 0.2224 3.5537-1.064 1.0725-1.2021 4.6677-4.7156 4.8589-4.8674-0.033 0.5178-0.1961 0.9773-0.49 1.3982-4.6817 6.7187-4.8103 6.2763-4.4546 8.2912 0.2666 1.5164-0.8516 2.9532-2.0589 3.7249-1.4426 0.9206-58.312 16.397-64.819 18.664-4.0112 1.3977-4.8403 0.8283-4.4597 2.5806 1.106 5.0857 0.1863 10.874-0.4419 12.052-3.5014 6.5815-9.1826 5.2356-11.565 2.7598-0.9898-1.0291-2.2929-3.1429-2.4099-4.5928-0.0925-1.1528 1.1865-4.5706 0.8766-6.2375-0.2226-1.1976 0.1247-0.9512-0.9911-0.713-1.3742 0.2925-3.2085 1.3565-4.3942 2.1075-7.5046 4.7624-7.2594 3.8843-7.3442 5.3469-1.1552 19.733-1.7281 46.029-3.4712 57.363-1.8143 11.797-9.6243 31.195-13.895 27.802-3.9408-3.132-7.6234-22.969-7.8695-24.091-1.3291-6.072-1.0996-8.3586 1.4386-52.294 0.2666-4.6157 2.0699-8.3587-0.7373-11.302-0.7825-0.8203-5.2394-4.249-8.2684-5.957-0.68579-0.3872-1.4678-0.6475-2.0138-1.2952-1.3505-1.5994-1.0622 2.2009-1.0606 2.5959 0.0084 2.358 0.12865 4.8355-1.3208 6.7852-4.0402 5.4312-11.178 3.9817-12.227-0.7024-1.3126-5.863-0.50155-9.1604-0.01465-11.567 0.52094-2.5764 0.9805-2.9536 0.1326-3.2888 0 0-1.3169-0.6785-42.112-16.706-23.711-9.3157-25.308-7.0828-25.406-13.908-0.03284-2.2534-2.0032-4.6313-3.1109-6.5063-0.37586-0.6362-0.55133-1.3587-0.9739-1.9697-0.1647-0.2371-0.0898-0.5335 0.0915-0.9842 0.3255 0.8897 4.3836 5.4922 5.085 6.2442 0 0 38.045 7.2656 37.257 7.1748 1.7834 0.2053 2.5388 1.1377 2.5469 0.2207 0.00324-0.4607 0.20087-0.6155 0.66977-0.47 0.3727 0.1153 0.7897-0.0124 1.1703 0.1546 0.18044 0.0786 0.29354-0.0726 0.36525-0.2081 0.21835-0.4116 0.47705-0.4604 0.95911-0.3632 1.3993 0.2817 2.8304 0.404 4.2328 0.673 1.3268 0.2537 0.38879-0.6892 1.4582-4.7756 0.33336 0.6809 0.32016 1.3389 0.46206 1.9517 0.7092 3.0691 0.3956 3.1748 0.84855 3.2373 0.95665 0.134 11.727 1.6936 13.385 2.0339 1.3823 0.2825 0.86474-0.3816 1.817-4.2312 0.02736 0.1853 0.6294 3.1345 0.6403 3.9531 0.0138 1.0369 3.0144 1.0777 3.852 1.1734 1.4509 0.165 0.43404 0.7375 0.67995 1.5036 0.5398-0.2927 1.1245-0.1574 1.59-0.0075 1.8961 0.612 3.7944 0.0891 5.6877 0.1343 0.42564 0.01 0.66779-0.2937 0.67749-0.7356 0.02851-1.3277 0.45801-2.5931 0.59545-3.9029 0.0192-0.1804 0.05824-0.4116 0.25435-0.3921 0.3396 0.0332 0.59675 4.8531 1.3192 4.7891 1.101-0.0984-0.3502-1.2493 1.5239-1.2646 0.7091-0.0057 10.496-0.795 11.185-0.9463 0.1729-0.0374 0.49-0.1145 0.4937 0.2475 0.0051 0.489 0.59523 0.3438 0.6444 0.0645 0.03726-0.2049-0.04166-0.4649-0.20993-0.4956-0.41347-0.0769 0.88793-38.763 5.4687-53.339 0.2331-0.7429 1.4185-4.2377 1.539-5.5637 0.17174-1.8828 1.1719-0.6649-5.5262-4.2815-6.1151-3.3018-28.906-14.863-29.033-14.926-0.801-0.40044-0.3498-2.2325-0.29665-3.4032 0.0241-0.51068-1.4745-0.4046 29.655 4.8193 12.252 2.0557 12.074 1.61 11.739 2.4305-0.522 1.2767-0.74726 2.6551-1.2932 3.9264-0.07034 0.16335-0.19414 0.40369 0.12476 0.47125 0.2494 0.0523 0.4113 0.03235 0.5205-0.3069 1.6002-4.9843 2.0773-5.8284 2.0389-6.2213-0.0998-1.0307 1.5501-1.2364 1.7947-0.0375 0.1303 0.6393 0.4307 1.2367 0.7593 1.8067 0.089 0.15323 41.344-2.8619 41.951-3.0644 0.2019-0.06724 0.48-0.04944 0.4448 0.34662-0.2185 2.4144 0.1375 3.2613-1.1171 3.5235-0.0391 0.0083-35.661 14.248-35.731 14.372-0.3466 0.6178 0.7851 3.229 0.9493 3.9732 3.0995 14.028-0.463 56.991-0.4759 57.122z"/> <path d="m1011.5 1232.9 0.00816-0.0198-4e-3 0.0096-0.00856 0.02c-3.2677 8.0432-6.7488 15.973-10.431 23.776l-22.819-10.77c3.4845-7.3835 6.7814-14.894 9.8738-22.505l-0.00785 0.0195 0.00376-0.0095z"/> <path d="m982.99 1291.2-6.6e-4 0.0027c-4.3459 7.5288-8.8795 14.907-13.613 22.159l-21.13-13.793c4.4799-6.8633 8.7751-13.854 12.888-20.981z"/> <path d="m946.76 1345.1-2.4e-4 0.0034c-5.3188 6.8452-10.808 13.528-16.479 20.06l-19.055-16.541c5.3787-6.1963 10.561-12.505 15.606-19z"/> <path d="m903.55 1393.5-6.6e-4 0.0032c-6.1947 6.0564-12.551 11.944-19.062 17.654l-16.638-18.97c6.1688-5.4113 12.187-10.984 18.057-16.727z"/> <path d="m854.18 1435.7v0.0032c-6.9471 5.1543-14.055 10.138-21.276 14.913l-13.918-21.047c6.8437-4.5249 13.571-9.2417 20.154-14.13z"/> <path d="m799.56 1470.7-6.5e-4 0.0032c-7.5848 4.1685-15.273 8.1275-23.091 11.888l-10.935-22.741c7.4119-3.5645 14.676-7.3052 21.869-11.26z"/> <path d="m740.68 1498.1-6.1e-4 0.0027c-8.072 3.094-16.242 5.9732-24.504 8.6326l-7.7307-24.019c7.8128-2.5144 15.567-5.2483 23.2-8.1751z"/> <path d="m678.64 1517.1-2.5e-4 3e-3c-8.3975 1.9541-16.938 3.7004-25.483 5.2012l-4.3658-24.853c8.0942-1.4212 16.167-3.0708 24.123-4.9248z"/> <path d="m614.49 1527.5-2.3e-4 0.0025c-8.5506 0.7805-17.188 1.3357-25.843 1.6538l-0.9259-25.217c8.202-0.3008 16.366-0.8256 24.468-1.5676z"/> <path d="m549.68 1528.9v0.0031c-8.6383-0.3918-17.255-1.0115-25.958-1.8757l2.4937-25.109c8.2452 0.8186 16.418 1.406 24.598 1.7739z"/> <path d="m484.97 1521.6 0.14807 0.0266-0.02124-0.0039-0.14948-0.0266c-8.5173-1.5503-17.019-3.3379-25.356-5.3267l5.8559-24.544c7.909 1.8865 15.933 3.5735 24.02 5.0461l-0.14976-0.0266 0.02109 0.0037z"/> <path d="m422.14 1505.7-2.8e-4 0.0027c-8.279-2.7119-16.481-5.6497-24.537-8.7861l9.156-23.514c7.6198 2.9671 15.396 5.7527 23.228 8.3155z"/> <path d="m361.91 1481.3-5.2e-4 0.0032c-7.7973-3.8076-15.459-7.8103-22.997-12.015l12.291-22.037c7.1344 3.979 14.391 7.7705 21.77 11.371z"/> <path d="m305.67 1448.9-2.7e-4 0.0032c-7.204-4.8384-14.265-9.8642-21.173-15.07l15.187-20.15c6.5452 4.9326 13.222 9.6853 20.048 14.267z"/> <path d="m254.37 1409.2-5.2e-4 0.0029c-6.4602-5.7578-12.795-11.717-18.924-17.805l17.782-17.902c5.8178 5.7793 11.792 11.4 17.925 16.862z"/> <path d="m208.95 1362.8-2.5e-4 0.0027c-5.6298-6.5899-11.071-13.317-16.336-20.198l20.041-15.331c4.9969 6.532 10.132 12.88 15.475 19.131z"/> <path d="m170.22 1310.7-4e-4 0.0027c-4.6741-7.2705-9.1722-14.7-13.45-22.22l21.932-12.476c4.0518 7.1228 8.3122 14.159 12.74 21.044z"/> <path d="m138.9 1253.9-1.8e-4 0.0031c-3.6511-7.8518-7.0947-15.813-10.321-23.875l23.426-9.3762c3.0514 7.6247 6.3188 15.18 9.7735 22.605z"/> <path d="m109.28 936.56-2.56e-4 0.0029c2.1249-8.4264 4.4706-16.754 7.0294-24.976l24.093 7.4981c-2.4228 7.7848-4.6434 15.667-6.6554 23.645z"/> <path d="m129.42 874.86-3.8e-4 0.0031c3.2557-8.0553 6.7233-15.992 10.393-23.803l22.837 10.73c-3.4737 7.3924-6.7565 14.906-9.8376 22.528z"/> <path d="m157.82 816.52-5.2e-4 0.0028c4.3299-7.535 8.8606-14.937 13.578-22.19l21.153 13.756c-4.4653 6.8661-8.7561 13.876-12.854 21.006z"/> <path d="m193.96 762.57-6e-4 0.0031c5.303-6.854 10.79-13.557 16.445-20.094l19.083 16.507c-5.3566 6.1922-10.551 12.537-15.573 19.026z"/> <path d="m237.08 714.07-1.3e-4 0.0023c6.1836-6.071 12.533-11.972 19.032-17.691l16.67 18.941c-6.1556 5.4172-12.171 11.008-18.028 16.756z"/> <path d="m286.38 671.85-3.7e-4 0.00313c6.9391-5.1728 14.037-10.168 21.251-14.956l13.954 21.022c-6.8321 4.5352-13.557 9.2678-20.13 14.164z"/> <path d="m340.94 636.7-5.2e-4 0.00311c7.577-4.1862 15.263-8.1612 23.073-11.933l10.974 22.721c-7.3969 3.5728-14.674 7.3357-21.851 11.298z"/> <path d="m399.77 609.27-2.4e-4 0.00284c8.0733-3.1146 16.223-6.0027 24.486-8.6786l7.772 24.006c-7.8156 2.5302-15.546 5.2704-23.182 8.2144z"/> <path d="m461.78 590.13-3e-4 0.00335c8.4266-1.9816 16.906-3.7298 25.48-5.2513l4.4083 24.845c-8.119 1.4404-16.139 3.0939-24.118 4.9676z"/> <path d="m525.91 579.66-3.3e-4 0.0031c8.5568-0.80214 17.185-1.371 25.846-1.704l0.96885 25.214c-8.2088 0.31549-16.362 0.8526-24.47 1.6102z"/> <path d="m590.72 578.06 0.20203 0.01063 0.01057 0.00107-0.2023-0.01065c8.6224 0.37311 17.254 0.97962 25.941 1.8272l-2.4499 25.112c-8.2298-0.80341-16.419-1.3775-24.582-1.7314l-0.2018-0.01035-0.01083-4.9e-4z"/> <path d="m655.44 585.26-3.6e-4 0.00284c8.5482 1.537 17.015 3.3025 25.38 5.2831l-5.8134 24.554c-7.9166-1.875-15.949-3.55-24.042-5.008z"/> <path d="m718.3 601.05 0.28135 0.09445 0.00995 0.00393-0.2816-0.09527c8.2984 2.6989 16.469 5.6101 24.544 8.7384l-9.1158 23.529c-7.64-2.9604-15.382-5.7183-23.233-8.2726l-0.28123-0.09523-0.0101-0.00312z"/> <path d="m778.57 625.36-2.3e-4 0.0031c7.8028 3.7863 15.48 7.7806 23.023 11.971l-12.254 22.058c-7.1463-3.9701-14.401-7.7447-21.793-11.334z"/> <path d="m834.86 657.65-4.9e-4 0.00314c7.2177 4.8232 14.277 9.8302 21.198 15.027l-15.153 20.176c-6.5595-4.926-13.23-9.6573-20.071-14.232z"/> <path d="m886.23 697.33-6e-4 0.00312c6.4872 5.755 12.802 11.676 18.957 17.769l-17.752 17.931c-5.834-5.7753-11.807-11.375-17.955-16.832z"/> <path d="m931.74 743.62-7e-4 0.00254c5.6427 6.575 11.094 13.29 16.371 20.164l-20.015 15.364c-4.9963-6.5077-10.165-12.875-15.507-19.104z"/> <path d="m970.56 795.64-2.5e-4 0.00281c4.6924 7.2649 9.1918 14.667 13.488 22.19l-21.911 12.514c-4.07-7.1255-8.3308-14.137-12.776-21.022z"/> <path d="m1002 852.42-3e-4 0.00336c3.6684 7.8462 7.12 15.79 10.363 23.852l-23.409 9.4164c-3.0696-7.6309-6.3405-15.159-9.8128-22.589z"/> <path d="m1025.4 912.99v0.0031c2.5538 8.2461 4.8847 16.574 6.9926 24.992l-24.477 6.1283c-1.9949-7.968-4.202-15.853-6.6195-23.662z"/> <path d="m128.86 1104.4c0.96741 0.5118 5.0651-0.8266 12.398-1.7795 0.55333-0.0725 0.33501-0.4375 0.43175-0.7034 0.06593-0.1828-0.16535-0.5124 0.18409-0.5395 1.1762-0.0921 0.43802 1.5488 1.9546 4.6216 0.01144-0.1299 0.36243-3.6631 0.28891-4.5867-0.06128-0.763 0.6044-0.3518 4.1834-1.075 0.94859-0.1926 1.7542 0.1734 2.6283 0.1665 0.57513-0.0039 1.1765 0.428 1.348 0.8169 0.16526 0.376-0.01236 0.199 3.1153 0.5086 1.4474 0.143 1.4122 0.0073 1.6575 1.2273 0.22493 1.1174 0.35746 2.2553 0.72747 3.3366 0.17569-0.0297 0.17852-0.1533 0.16533-0.2563-0.15421-1.1926 0.21891-2.3398 0.28996-3.5127 0.02324-0.3879 0.21886-0.5715 0.53424-0.4868 0.93234 0.2507 1.9183-0.2273 2.8274 0.2334 0.03526 0.0183 0.08788 0.0073 0.13149 0.0024 1.3848-0.1626 2.7774 0.0369 4.1384 0.1428 1.7812 0.139 3.5722-0.0739 5.3441 0.243 2.795 0.4983 1.878-1.2539 3.3309 4.5188 0.03747 0.1513 0.04355 0.3071 0.29949 0.4653-0.18883-1.5549 0.20745-2.2593 0.20324-4.1101-9.7e-4 -0.2862 0.15628-0.3411 0.37648-0.3286 0.88906 0.0476 1.7616-0.2036 2.6803 0.0766 0.66425 0.2034 1.4356-0.0593 2.1621 0.0508 0.13013 0.019 0.35441-0.064 0.41272-0.1677 0.56149-1.0103 1.8585-0.1858 2.2271-0.8152 0.34348-0.5862 1.0874-0.853 1.7488-0.5723 1.0633 0.4507 22.128 2.2598 36.458 3.8748 1.4772 0.1665 2.4051-0.209 3.5471 1.0842 1.066 1.2083 4.6416 4.741 4.8317 4.8941-0.02965-0.5181-0.19071-0.9776-0.48171-1.4007-4.6443-6.7453-4.7749-6.3032-4.4085-8.3159 0.27521-1.5149-0.83476-2.9582-2.0379-3.7368-1.4372-0.9285-58.219-16.724-64.712-19.028-4.0033-1.4194-4.8356-0.8552-4.4451-2.6052 1.1346-5.0801 0.24687-10.873-0.37436-12.054-3.4648-6.6008-9.1533-5.2866-11.549-2.8244-0.99516 1.0232-2.3103 3.1296-2.4357 4.5791-0.09888 1.1526 1.1611 4.5759 0.84181 6.2419-0.22914 1.1963 0.11946 0.9517-0.99522 0.7075-1.3724-0.3005-3.2008-1.3747-4.3822-2.1323-7.4777-4.8037-7.2376-3.9243-7.3146-5.3874-1.0439-19.739-1.4696-46.039-3.1495-57.381-1.7479-11.808-9.4491-31.25-13.738-27.881-3.9585 3.1118-7.7527 22.927-8.0046 24.047-1.363 6.064-1.1465 8.3519 1.1453 52.301 0.24071 4.617 2.0232 8.3702-0.80066 11.299-0.787 0.8159-5.2635 4.2198-8.3017 5.9104-0.68786 0.3836-1.4718 0.6399-2.0212 1.2837-1.3592 1.5918-1.0498-2.207-1.046-2.6018 0.021745-2.3577 0.15595-4.835-1.2825-6.7917-4.0093-5.4544-11.156-4.0447-12.23 0.6338-1.3452 5.8552-0.55288 9.1569-0.079269 11.567 0.50654 2.5799 0.96379 2.9585 0.11402 3.2894 0 0-1.3206 0.6713-42.205 16.469-23.763 9.1819-25.347 6.9405-25.484 13.765-0.045425 2.2532-2.0287 4.6206-3.147 6.4888-0.37965 0.6343-0.5589 1.3562-0.98494 1.9644-0.16611 0.2363-0.092666 0.5329 0.08587 0.9853 0.33073-0.8879 4.4145-5.4685 5.1199-6.2165 0 0 38.085-7.052 37.297-6.9663 1.7844-0.1954 2.5452-1.1231 2.5479-0.2054 0.001102 0.4597 0.19769 0.6162 0.66729 0.4734 0.37363-0.1135 0.78978 0.0164 1.1712-0.1482 0.18073-0.0781 0.29333 0.0743 0.36438 0.21 0.21568 0.4131 0.47438 0.4636 0.95673 0.3691 1.4011-0.2739 2.8328-0.3884 4.2369-0.6489 1.328-0.2459 0.38476 0.6912 1.431 4.7834 0.3372-0.6794 0.32776-1.3378 0.47283-1.9489 0.72669-3.0654 0.41382-3.1731 0.86692-3.2327 0.95763-0.1284 11.737-1.6289 13.396-1.958 1.3839-0.2754 0.86284 0.386 1.7938 4.2405 0.028076-0.1856 0.64671-3.1314 0.66217-3.9502 0.01954-1.0357 3.0202-1.0606 3.8582-1.1507 1.4521-0.1572 0.43828-0.7368 0.68857-1.5004 0.538 0.2963 1.1238 0.164 1.5898 0.0168 1.8997-0.6013 3.7952-0.0676 5.6884-0.1028 0.4254-0.0075 0.66645 0.2979 0.67337 0.7393 0.02077 1.3271 0.44333 2.5954 0.57352 3.907 0.018054 0.1801 0.05591 0.4106 0.2525 0.3925 0.33927-0.0317 0.62386-4.8501 1.3457-4.7815 1.1004 0.1045-0.35752 1.2478 1.5164 1.2742 0.70916 0.01 10.492 0.8535 11.18 1.0081 0.17252 0.0403 0.48934 0.1174 0.49497-0.2442 0.007824-0.4885 0.5972-0.3403 0.64489-0.0608 0.035915 0.2049-0.04439 0.4642-0.21276 0.4939-0.41369 0.075 0.67015 38.768 5.1698 53.369 0.22914 0.7437 1.3946 4.2449 1.5077 5.5728 0.16132 1.8835 1.1684 0.6706-5.5503 4.2502-6.133 3.2666-28.989 14.701-29.116 14.764-0.8033 0.3964-0.36243 2.2304-0.31585 3.4018 0.021425 0.5105-1.4767 0.3955 29.682-4.6528 12.263-1.9873 12.083-1.543 11.753-2.3648-0.51502-1.2802-0.73245-2.6589-1.2712-3.9345-0.069106-0.1636-0.19161-0.4046 0.12748-0.4698 0.24939-0.0507 0.41156-0.0297 0.51858 0.3094 1.5727 4.9936 2.0444 5.8405 2.0043 6.2331-0.10561 1.0301 1.5429 1.2447 1.7943 0.0479 0.13395-0.6399 0.43782-1.2349 0.76946-1.8025 0.08994-0.1526 41.327 3.093 41.933 3.2983 0.20165 0.0679 0.48021 0.0523 0.44637-0.3435-0.20467-2.4158 0.15596-3.2605-1.0971-3.53-0.03903-0.0086-35.581-14.447-35.65-14.573-0.34302-0.6206 0.80344-3.2251 0.972-3.9677 3.1777-14.01-0.14361-56.992-0.15591-57.123z"/> <path d="m1009 808.57c1.3569-5.2825 1.9733-10.722 1.8328-16.224-0.83876-32.536-27.989-58.323-60.525-57.486-13.536 0.3457-26.638 5.3867-36.892 14.191-9.1194 7.8294-15.662 18.321-18.689 29.856-21.825-1.4744-41.154 12.847-46.786 33.17-3.3159-0.66614-6.6928-0.95905-10.09-0.8697-25.039 0.6441-44.891 21.394-44.248 46.433 0.64533 25.042 21.537 44.741 46.578 44.097l158.54-4.079c25.04-0.64411 44.89-21.395 44.246-46.436-0.5277-20.486-14.537-37.644-33.973-42.653z"/> <path d="m94.59 1354.6c-1.7005-6.2176-2.5286-12.634-2.4634-19.139 0.39515-38.465 32.007-69.435 70.472-69.042 16.002 0.1604 31.578 5.8779 43.856 16.095 10.92 9.0843 18.844 21.364 22.632 34.939 25.764-2.1418 48.868 14.428 55.895 38.341 3.9056-0.8479 7.8924-1.2557 11.907-1.2137 29.602 0.3035 53.44 24.462 53.139 54.062-0.3038 29.606-24.63 53.267-54.235 52.966l-187.43-1.9162c-29.604-0.3018-53.441-24.462-53.139-54.064 0.24808-24.219 16.49-44.752 39.367-51.028z"/> </g> <g fill-opacity=".38431"> <path d="m900.95 1268.5-3.0533 0.5542q0.16876 0.2068-23.763 1.0422-11.018 0.3226-26.165 0.6121-30.295 0.5789-77.106 1.0254-47.136 0.4458-101.71 0.656-69.847 0.2114-86.049 0.1829-30.078 0.0168-62.016-0.0254-60.961-0.1177-111.07-0.4373-60.266-0.4436-69.064-0.593-20.987-0.2353-39.262-0.521-73.04-1.1514-68.884-2.666 3.1987-0.7837 26.008-1.4268 2.9282-0.1821 42.345-0.8933 17.212-0.2729 38.553-0.5124 9.0626-0.1538 71.37-0.6187 25.428-0.1638 52.716-0.269 54.576-0.2102 116.59-0.1848 64.145 0.039 116.81 0.3176 26.412 0.1345 50.111 0.3196 56.875 0.5063 64.995 0.6682 39.793 0.5278 62.361 1.1794 24.88 0.68 26.285 1.5901"/> </g> <g fill="#fff"> <path d="m603.93 874.76 3.4108 388.72q80.576 4.9656 160.83 0.3879l-3.4269-390.52-160.81 1.4111z"/> </g> <g fill="#1e3c51"> <path d="m567.03 928.21 2.1601 332.26 233.98-1.2751-1.8021-331.99-234.33 0.9988z"/> </g> <g fill="#183043"> <path d="m570.96 925.06-6.9048 332.2 17.6 0.3842 8.706-332.14-19.39-0.44645-0.01049-2.6e-4z"/> </g> <g fill="#bf9b33"> <path d="m660.14 1062.3q-1.3567 3.7666-2.5237 7.3919l-0.0015-8e-4q-2.182-0.9446-4.4263-1.9907l-0.0039-5e-4q1.4263-1.3464 2.9858-2.6228 1.9484-1.499 3.9655-2.7773zm-2.5203 7.3931-0.00156-5e-4q0.00156 5e-4 0.00174 7e-4zm55.912-5.7437q5.1185 3.7532 9.4653 9.0352 0.52222 0.6865 1.0177 1.3799l-0.0047-5e-4q-5.2092 1.3786-9.3908 2.2138l-0.00158-5e-4q-0.44129-6.0783-1.0902-12.629zm-32.15-8.8472-1.9461 21.855-0.00171-7e-4q-7.0386-1.5156-14.958-4.488-0.00164-8e-4 -0.00348-0.0013l-0.00156-5e-4q2.2794-7.143 5.3343-14.884l-0.00372-3e-4q5.5633-1.964 11.576-2.4811zm9.779 0.0855 0.1839 0.0222q7.6487 0.9942 14.255 4.0518l-0.00414-3e-4q1.1075 10.055 1.7205 18.533l-0.0017-7e-4q-7.4e-4 1e-3 -0.0028 0.0012-10.577 1.4365-20.111 0.4204-0.152-0.0163-0.30365-0.0329-0.07995-0.0086-0.16021-0.0179-0.00234-2e-4 -0.00519-4e-4l0.00105 2e-4 2.0628-23.16-0.00416-5e-4q1.177 0.0664 2.3698 0.1836zm36.868 25.751q5.623 10.993 5.1146 23.603l-0.0048-7e-4 -17.585-1.1031-0.00155-4e-4q0.11105-8.9432-0.45866-19.439-1.4e-4 -7e-4 0-0.0015l-0.00184-5e-4q6.2406-1.1831 12.933-3.0586zm-20.258 4.2307q0.0309 0.6197 0.0586 1.2286 0.4377 8.8542 0.3502 16.578l-1e-4 2e-4 -23.525-1.4758 1.4234-15.984 0.00403 5e-4q0.34333 0.0397 0.68913 0.0766 9.6826 1.032 20.996-0.4245zm-45.403-5.6167-0.0016-2e-4q8.6298 3.2021 16.411 4.7983l-2.5e-4 5e-4 -1.4856 16.687-18.963-1.1892-0.0015-8e-4q1.0311-9.3884 4.0361-20.296zm-14.372-6.1623q3.8092 1.8374 7.4765 3.4055l-0.0017-5e-4q0.0015 0.0012 0.00136 0.0017l0.00394 3e-4 -0.00394-3e-4q-3.4124 12.155-4.5183 22.59l7.3712 0.4624-7.3717-0.4624-12.738-0.7993-0.00186-5e-4q0.0601-0.7942 0.142-1.5952 1.7168-13.44 9.6367-23.602zm59.968 36.949q-0.3621 7.4626-1.2942 13.698-0.6584 4.5948-1.6396 9.1841l-0.00206-2e-4q-9.7302-2.2275-18.851-3.3372l-0.1235-0.0151q-1.1029-0.1358-2.2267-0.2554-0.82519-0.0879-1.6618-0.1675l-0.00157-4e-4 1.8377-20.614 23.958 1.5066 0.0046 5e-4zm-31.325-1.97-1.8301 20.556-0.00166-8e-4q-5.3e-4 8e-4 -0.00236 5e-4 -7.4524-0.3594-15.718-0.1118l-0.00156-7e-4q-1.6343-11.421-1.2785-21.626-1.5e-4 -2e-4 -1.5e-4 -4e-4l18.832 1.1838zm55.6 3.4958q-3.0232 14.621-13.67 24.889l-0.0014-5e-4q-1.8656-0.541-3.5522-0.9959-1.413-0.393-2.8144-0.7644-0.00225-5e-4 -0.00425-1e-3v8e-4q1.089-5.0369 1.7932-10.025 0.9717-6.4002 1.3465-14.166l16.898 1.0623zm-81.802-5.143h-0.00347l0.00347 2e-4q-0.39474 10.448 1.2522 22.424v5e-4q-0.00155-5e-4 -0.0036 0-2.5468 0.1516-5.1648 0.3564l-0.00155-2e-4q-7.4235-10.903-8.3222-23.55l-0.00163-7e-4 12.242 0.7705zm2.4241 29.746q0.0452 0.2488 0.0914 0.4986l-0.0017-8e-4q-0.24746-0.2351-0.4943-0.4748l-0.00194-1e-3q0.20258-0.011 0.40304-0.0222zm57.602 5.6992q0.47237 0.1214 0.9591 0.2503l-0.00156-7e-4q-0.61627 0.3981-1.2407 0.7749l-0.00194-8e-4q0.14344-0.5122 0.28114-1.0244zm-36.308-5.8913-1.0741 12.067-0.0017-5e-4q-5.9758-1.6213-11.234-4.6843l-0.00156-7e-4q-0.93224-4.1468-1.5575-7.4988 0-2e-4 0-2e-4l-0.0015-8e-4q7.3094-0.1894 13.866 0.1184zm8.0105-6.8294-0.6549 7.3536q0.844 0.0798 1.6946 0.1706 9.606 1.0232 20.092 3.4246l-0.0016-8e-4q0.0016 1e-3 0.0014 1e-3 -0.9446 3.5081-2.079 7.0127h1.4e-4q-9.7424 3.3787-20.861 2.3369l-0.0017-7e-4 1.1549-12.944 0.6549-7.3536zm9.903-81.582q-22.149-2.3599-40.273 11.264-17.793 14.463-20.734 36.706-2.3206 22.725 11.292 40.515 14.165 17.576 36.667 20.674 0.08616 0.0095 0.17234 0.0188 0.25286 0.0271 0.50501 0.052l0.00519 5e-4 -0.00159-1e-3 -0.00269 5e-4q21.845 2.1518 39.76-11.312 17.796-14.462 20.739-36.704 0.21056-2.0586 0.2904-4.0769l-0.0016-7e-4q0.80116-20.26-11.576-36.439-14.162-17.577-36.664-20.678l-0.01489-0.0019q-0.08177-0.0091-0.16333-0.0178z"/> <path d="m693.78 1035.1q27.557 3.7341 45.162 25.376 16.927 22.111 14.061 50.035-3.6161 27.391-25.308 45.171-22.228 16.983-49.932 14.143-27.572-3.628-45.266-25.221-17.01-22.064-14.232-49.999 3.6974-27.829 25.395-45.441 22.251-16.959 49.953-14.085m1.0531-7.3077q-30.861-3.2387-55.499 15.536-23.973 19.446-28.179 49.984-3.3675 30.524 15.374 55.451 19.342 24.048 50.03 28.351 30.852 3.3384 55.558-15.368 24.04-19.384 28.33-49.914 3.3883-30.97-15.404-55.731-19.377-24.029-50.07-28.292z"/> <path d="m623.54 957.93 0.0097 7.9997-7.9995 0.00986-0.0098-7.9997zm19.999-0.0242 0.0101 7.9998-7.9998 0.00996-0.00984-8.0001zm59.998-0.0731 0.0097 7.9998-8.0001 0.0097-0.00928-7.9998zm39.998-0.04865 0.00946 7.9996-7.9995 0.0098-0.00971-7.9996zm-19.999 0.02445 0.02437 19.999-8.0001 0.00971-0.0238-19.999zm-112-3.8635 0.0338 27.999 3.9998-0.00494-0.01464-11.999 7.9998-0.00989q1.6557-0.00206 2.811-1.1594 1.1858-1.1578 1.1838-2.845l-0.0097-7.9997q-0.00205-1.6564-1.1909-2.8111-1.1573-1.186-2.8137-1.184zm23.999-0.0293q-1.6875 0.00196-2.842 1.191-1.1548 1.1576-1.153 2.8137l0.02924 23.999 3.9997-0.00505-0.01453-11.999 7.9996-0.00958 0.01456 12 3.9998-0.00506-0.02913-23.999q-0.00187-1.6562-1.1908-2.811-1.1577-1.186-2.8138-1.1841zm19.999-0.02447q-1.6875 0.00217-2.8422 1.1911-1.1549 1.1574-1.1531 2.8136l0.01004 8q0.00174 1.6872 1.1595 2.8421 1.1574 1.1546 2.8449 1.1526l7.9997-0.0097 0.00985 7.9996-7.9994 0.01-0.00516-3.9997-3.9998 0.00464 0.00455 3.9996q0.00217 1.6876 1.1599 2.8424 1.1577 1.1549 2.8453 1.1529l7.9993-0.0098q1.6562-0.00196 2.8112-1.1597 1.1859-1.1577 1.1838-2.8451l-0.00994-7.9998q-0.0017-1.656-1.1907-2.8108-1.1575-1.186-2.8137-1.184l-7.9996 0.00983-0.00971-7.9998 7.9996-0.00955 0.00494 3.9997 3.9998-0.0048-0.00482-4.0001q-0.00208-1.6559-1.1907-2.8107-1.1578-1.186-2.8141-1.1841zm19.999-0.02447q-1.6875 0.00224-2.842 1.1911-1.1549 1.1574-1.1528 2.8138l0.0093 7.9997q0.0022 1.6874 1.1597 2.8422 1.1578 1.1547 2.8452 1.1527l7.9995-0.0098 0.01 7.9999-7.9998 0.0096-0.0049-3.9998-3.9999 0.00487 0.00484 3.9997q0.00196 1.6875 1.1599 2.8421 1.1574 1.1549 2.8449 1.1529l7.9999-0.00956q1.6562-0.00194 2.8108-1.1596 1.1861-1.1576 1.184-2.8452l-0.00984-7.9995q-0.00196-1.6563-1.1909-2.8111-1.1576-1.186-2.8138-1.1838l-7.9995 0.0096-0.0097-7.9996 7.9996-0.00971 0.00466 3.9997 3.9999-0.00485-0.00482-3.9998q-0.00208-1.6562-1.1909-2.8108-1.1576-1.186-2.8136-1.184zm15.999-0.01926 0.0341 27.999 3.9994-0.00488-0.01426-12 7.9994-0.00984q1.6565-0.00194 2.8112-1.1597 1.186-1.1577 1.1838-2.8449l-0.00946-7.9998q-0.0022-1.656-1.1908-2.8109-1.1576-1.186-2.8136-1.1839zm23.999-0.02927q-1.6875 0.00217-2.8423 1.1911-1.155 1.1575-1.1528 2.8138l0.0241 19.999q0.0021 1.6875 1.1595 2.8424 1.1578 1.1548 2.8455 1.1527l7.9994-0.00973q1.6563-0.00207 2.811-1.1596 1.1863-1.1576 1.1841-2.8451l-0.0245-19.999q-0.0017-1.6563-1.1907-2.811-1.1578-1.1858-2.814-1.184zm15.999-0.01943 0.03404 27.999 3.9997-0.00506-0.01464-11.999 2-0.00243 6.0144 11.992 4.0001-0.00474-6.0145-11.992 1.9999-0.0023q1.656-0.0022 2.8108-1.1596 1.1862-1.1577 1.1842-2.8452l-0.0098-7.9995q-0.0021-1.6563-1.1908-2.8113-1.158-1.186-2.8139-1.184zm19.999-0.02415 0.0048 3.9998 5.9994-0.00754 0.02925 23.999 3.9999-0.00488-0.0293-23.999 5.9999-0.0071-0.00474-3.9999z"/> <path d="m666.49 1224.3q-5.2359 0.4116-6.2965 5.6762l0.0301 6.7278q0.02615 0.8523 0.3252 1.7771 1.0639 2.9021 3.8611 3.9807 1.1596 0.4148 2.2756 0.3948l48.04-0.5591 6.284-0.0766q0.94127-0.0535 1.6509-0.2898 2.6539-0.8623 3.9219-3.4927 0.50451-1.105 0.55652-2.4243l-0.06781-6.167q-0.02565-0.6826-0.1883-1.3289-0.86295-3.1626-3.9677-4.4416-1.1516-0.419-2.2646-0.4065l-54.074 0.6289z"/> </g> <g fill="#fdbd99"> <path d="m419.57 933.72-1.9302-2.4062q-8.6982-10.881-12.925-14.645-5.3462-4.9168-8.685-4.7985-1.6961 0.0792-2.3844 0.4587-0.90888 0.3837-1.6902 1.0238-2.3531 2.045-3.4529 5.2872-2.261 7.5199 1.4165 12.718 1.4227 2.0282 4.0663 2.762 1.8919 0.60087 6.6154 0.1474l12.23 9.7292 6.7397-10.277z"/> </g> <g> <path d="m527.88 815.89q4.6282-0.3912 8.1716 1.292 1.6816 0.7414 3.9799 2.1595 8.7825 5.4497 9.8582 6.3713 7.7429 5.4707 8.821 12.741 1.6826 10.227-4.5273 22.651-4.8435 9.9418-15.218 15.579l-22.351-44.241-2.3437-6.359q-2.9947-2.208-3.0932-3.5753-0.30359-2.2856 3.2929-3.6882 6.8388-2.2682 13.357-2.9277z"/> </g> <g fill="#fdbd99"> <path d="m516.1 828.76 2.6038 0.36614 8.3761 3.5705q-0.73294 3.9482 0.6499 5.1646 0.52916 0.5428 1.3431 0.8692 4.6569 1.3737 5.2519 1.8426 1.5393 0.84485 2.2477 2.0802 1.0273 1.6082 0.8049 5.1078 0.05483 1.9355-2.2038 12.415-0.2498 1.7857 0.20645 2.1544 0.52215 0.59014 3.0232-1.7204-0.39447-4.9466 2.1307-5.8065 2.2558-0.88665 4.6122-0.26556 2.1895 0.68591 2.5437 2.3867 0.8669 2.4634-4.0127 11.978 2.7337 1.1753 2.5513 2.0426 0.14416 0.74435-1.5317 3.1054l-1.8792 7.2731 1.4699 4.7831-13.215 15.967-16.203-13.482 0.7742-8.6505q-0.694 1.2989-10.002 0.51398-3.4272-0.43434-3.7979-2.6474l-0.48446-4.7544 0.74072-6.1963 2.3715-6.8854q-5.4396-2.1635-5.41-5.9035 0.10657-0.45709 0.73647-0.82599 1.1514-0.24908 4.0149-1.7304 2.5206-2.6034 3.4754-4.0752 1.1128-1.656 1.6508-3.5652 0.45016-1.2776 1.0511-6.0401 0.23968-1.093 0.6784-2.0106 0.92197-2.1174 5.3677-6.9914z"/> </g> <g fill="#fff"> <path d="m514.31 884.94 16.265 5.4813 13.968-6.239 19.1 13.88 1.5452 84.493-17.768 53.113-29.642 4.8603-37.818-21.092 10.202-91.767 15.483-34.466 8.6299-8.2307z"/> </g> <g> <path d="m528.58 892.15 3.9324 5.7375-3.3053 4.423-4.4997 97.771-7.5632 10.11-9.2698-6.9529 16.872-101.02-1.2786-6.1032 5.0631-3.9233z"/> </g> <g fill="#fff" fill-opacity=".99608"> <path d="m513.5 844.27v9.2e-4l-0.5511 2.5276q2.3306 0.09074 4.6606 0.18143l-4.1094-2.7099z"/> </g> <g fill-opacity=".99608"> <path d="m513.58 844.26-0.08227 0.08864q-0.25513 0.2639-0.44973 0.5462-0.1461 0.24016-0.1588 0.29295-0.04125 0.10028-0.0643 0.20645-0.0235 0.1069-0.02834 0.2184l-6.1e-4 0.113q0.00281 0.1142 0.01915 0.23235 0.0372 0.2934 0.20674 0.85309l1.2088-0.97274-0.65064-1.5783z"/> <path d="m526.92 827.38v0.00107-0.00107 0.00107z"/> </g> <g fill="#863608" fill-opacity=".99608"> <path d="m513.8 842.39 0.30564 0.02356q0.92529 0.06514 1.7687 0.18781 0.92213 0.15583 1.3223 0.32623 0.4391 0.1622 0.9189 0.4988 0.0795 0.0484 0.4156 0.33103 0.2005 0.17107 0.628 0.59777l-5.3591-1.9652z"/> <path d="m519.26 835.72v1e-3l-6e-4 0.00137 6e-4 -0.00237z"/> </g> <g fill="#fff" fill-opacity=".99608"> <path d="m502.81 864.8-0.42992 1.2479q2.4954 0.00531 6.8901-0.24356-2.6868-0.20304-3.9994-0.41-1.2917-0.2217-1.4952-0.29523-0.4639-0.11682-0.86963-0.26477-0.03986-0.0149-0.07953-0.0304-0.00537-0.0021-0.0112-0.00415z"/> </g> <g fill="#fdbd99"> <path d="m393.5 912.62 0.75517 0.7432q2.3453 2.2127 3.9609 4.5864 0.5115 0.79733 0.86114 1.6295l0.2988 0.8438 0.19736 0.8661 0.0856 0.8907q0.01413 2.2525-1.1589 4.767-1.4695 3.1384-4.3597 7.3564l-4.1895-8.115 3.5492-13.568z"/> </g> <g> <path d="m512.32 1090-9.0642 41.933 21.942 13.519-3.6686-51.645-2.4389-33.348m-4.0976-173.06v9.4e-4 7.9e-4l5e-4 -0.00103v5e-4l-1.4604 14.179-4.4036 42.773-5.1164 67.225c5.6568 1.4971 7.606 5.8582 30.395 5.1759l21.312 0.7113 13.907-3.6349-14.519 71.188c-2.8383 39.692-3.8022 69.932-2.8913 90.717l4.717 2.614c-6.4882 23.094-10.748 39.74-12.78 49.943-3.5342 3.9658-10.401 3.3691-20.599-1.7893-3.3588-10.771-2.7875-22.782 1.7152-36.03l-5.3841-7.2053-42.364-34.725-6.3267-9.3061c-2.5587-3.3394-0.958-35.004 4.7996-94.991l-13.757-5.5584 18.354-88.168c-0.77151-0.43054-8.5437 7.1151-23.317 22.635l-8.6438 2.4419c-25.42-17.426-39.879-28.387-43.377-32.881l5.3419-7.1278 6.3412-9.55 30.056 23.667c12.29-8.1195 24.203-26.674 35.742-55.661 18.63-5.6515 29.266-8.7531 31.906-9.3065l0.35214 2.6632 5e-4 7e-4 -5e-4 -7e-4v9.4e-4z"/> </g> <g fill="#fff"> <path d="m572.94 1005.1 4.8781-0.06751 5.8557-1.8651 9.116 12.3-5.4388 0.17983-2.458-1.1961-9.8135 3.2659-2.1393-12.612z"/> </g> <g> <path d="m543.76 883.94 8.2067 4.6044 31.861 10.94 11.583 18.114 21.15 22.085 9.4241 11.872c1.3523 3.0322 2.095 5.7774 2.3448 8.2241 0.52486 5.1339-1.67 11.597-6.5078 19.519-4.7546 7.7841-14.395 20.814-29.112 38.972l-15.052-17.025 8.867-6.3296 10.84-13.252 9.9945-17.006-21.797-23.139-5.186-5.9575-11.46 73.708-15.436-2.1962-17.012 16.167 4.501-64.589 1.3246-35.184 1.4816-39.364z"/> </g> <g fill="#fdbd99"> <path d="m539.65 1008.6q6.9325-5.4554 10.766-6.7712 3.9364-1.5541 8.8013-0.5443 3.0763 0.56506 9.1834 2.9835l7.8134 0.7334 2.7862 11.441-15.841 7.3074-16.076 0.88493-6.7477-6.908-0.683-9.1027z"/> </g> <g> <path d="m567.77 1022.7 0.9876 15.082-0.32124 13.594-26.479-2.7563 25.788-25.895z"/> </g> <g fill="#7d3507" fill-opacity=".07451"> <path d="m561.74 999.7q-0.7685 0.55935 4.484 3.1202l-3.7769-2.1089 7.2296 3.6967 6.5426 0.61424 0.0142 0.05666 1.5854-0.02173 2.5043-0.79833-2.6618-3.0099 5.8789-4.1963 0.00171 4e-4q2.3321 2.8691 4.994 8.2152l-7.5441 3.6034-41.271 2.8695 0.02508-2.8458 3.0938-6.657q2.9157 1.1008 2.0229 1.3732 8.9077-3.0421 11.409-6.7088l2.8363 1.7024z"/> </g> <g fill="#5a4939"> <path d="m417.72 1091.8-53.365-0.5169c-2.9469-0.0283-5.3578 2.3328-5.3864 5.2796l-0.30997 32.02c-0.02869 2.955 2.3362 5.3627 5.2831 5.3913l53.365 0.5176c2.9474 0.0278 5.3624-2.3337 5.3913-5.2888l0.31-32.02c0.02856-2.947-2.3406-5.3542-5.2881-5.383zm-5.6492 31.968-42.691-0.4128 0.20666-21.35 42.69 0.414-0.2066 21.349z"/> </g> <g fill="#b46135"> <path d="m505.8 1262.7c-0.03455 3.5718-2.9607 6.4327-6.532 6.398l-219.88-2.1297c-3.5719-0.0346-6.4381-2.9523-6.4036-6.5236l1.3778-142.28c0.03461-3.5716 2.9565-6.4414 6.5284-6.407l219.88 2.1308c3.5712 0.0335 6.4413 2.96 6.4068 6.5315l-1.3779 142.28z"/> </g> <g fill="#5a4939"> <path d="m305.38 1254.3 12.936 0.1267-0.12537 12.93-12.936-0.1238 0.12518-12.933zm0 0 12.936 0.1267-0.12537 12.93-12.936-0.1238 0.12518-12.933zm0 0 12.936 0.1267-0.12537 12.93-12.936-0.1238 0.12518-12.933zm0 0 12.936 0.1267-0.12537 12.93-12.936-0.1238 0.12518-12.933z"/> </g> <g> <path d="m555.43 1178.3q14.325-0.8982 16.268-0.5774l1.0739 11.912-5.9415 0.9777q2.0202 11.155 3.7753 16.018 0.8222 2.3775 1.7572 4.2512l3.94 7.2706q0.7276 1.5383 1.0514 2.9531 0.96521 3.427-1.6307 8.6848 0.18124 0.4136-9.272 15.074-1.5603 2.1758-3.5188 0.8716-2.0613-1.5764-2.2912-4.2039-0.06285-0.8247 0.18762-2.0415 1.4855-5.2194 1.4402-5.904 0.22132-1.7603-0.19895-3.8052-0.48183-3.1953-4.8689-12.049-1.683-3.1557-3.6149-4.4472-0.7597-0.5452-1.6988-1.042-4.2586-2.0366-5.2055-2.635-1.8373-1.0442-5.0059-3.135l13.728-28.12z"/> </g> <g fill="#0e0701"> <path d="m527.37 1217.2 13.191 10.68q2.5416 6.1975 3.5916 14.441 1.1542 9.0427 0.14975 13.93-1.2638 6.9417-8.9226 9.4302-4.6171 1.4881-8.2558 0.8613-2.8839-0.5283-3.9519-3.1687-1.7191-3.4736-0.54067-15.763 0.47827-5.4412 2.0372-17.425l2.6996-12.976z"/> </g> <g fill="#cbd0d8"> <path d="m474.84 1120.2-12.931-0.1235c-3.5718-0.0362-6.4427-2.9537-6.4077-6.5347 0.03458-3.5718 2.9611-6.4329 6.5331-6.398l12.931 0.1258c3.5808 0.0337 6.4425 2.9519 6.4081 6.5234-0.03492 3.5801-2.952 6.4414-6.5336 6.407z"/> </g> <g fill="#5a4939"> <path d="m461.97 1113.6 12.931 0.1252-1.5027 155.21-12.931-0.1245 1.5029-155.21zm0 0 12.931 0.1252-1.5027 155.21-12.931-0.1245 1.5029-155.21zm0 0 12.931 0.1252-1.5027 155.21-12.931-0.1245 1.5029-155.21zm0 0 12.931 0.1252-1.5027 155.21-12.931-0.1245 1.5029-155.21z"/> </g> <g fill="#cbd0d8"> <path d="m319.63 1118.7-12.936-0.1243c-3.5718-0.0356-6.4376-2.9531-6.4027-6.5342 0.03437-3.5722 2.9561-6.4331 6.5279-6.3984l12.936 0.126c3.571 0.0337 6.4372 2.9516 6.4026 6.5234-0.03464 3.5806-2.9568 6.4421-6.5279 6.4075z"/> </g> <g fill="#5a4939"> <path d="m306.76 1112.1 12.936 0.1262-1.5029 155.21-12.936-0.124 1.5028-155.21zm0 0 12.936 0.1262-1.5029 155.21-12.936-0.124 1.5028-155.21zm0 0 12.936 0.1262-1.5029 155.21-12.936-0.124 1.5028-155.21zm0 0 12.936 0.1262-1.5029 155.21-12.936-0.124 1.5028-155.21z"/> </g> <g fill="#fff"> <path d="m390.42 864.63c0.355 2.2383 3.8093 25.532 7.7726 52.358l-2.1e-4 4e-5c3.9708 26.92 7.8646 53.241 8.4799 57.395l-3.4e-4 -1.6e-4c0.65903 4.401 1.253 8.5183 1.3338 9.1529l2.5e-4 0.00156 0.13723 1.1557c0.00745 0.06244-0.0174 0.12439-0.0659 0.16449l-1.7447 1.4412h-3.4e-4c-3.0715 2.5389-6.1766 5.1089-8.0542 6.6629l-1.1035 0.91356h-3e-4c-0.00124 0.0013-0.0113 0.0096-0.0113 0.00966-0.24202 0.19944-0.69218 0.57104-1.0292 0.84961h-1.5e-4c-0.5528 0.45679-0.81165 0.67063-1.3663 1.1279l-1.9e-4 1e-4c-0.32681 0.2697-0.57638 0.47524-0.85018 0.7002-0.66602 0.54726-1.5473 1.2771-2.2672 1.8731-0.37658 0.31174-0.49066 0.40637-0.78555 0.65004l-4e-4 1e-4c-0.71509 0.59583-1.9704 1.6331-2.7035 2.2379l-3.3e-4 1.5e-4 -0.16791 0.13879h-1.8e-4c-1.6512 1.3629-4.4011 3.633-7.2167 5.9657h-3.4e-4l-0.14513 0.12073h-2.8e-4c-1.166 0.96643-2.4974 2.0687-3.0242 2.5007-0.16132 0.13354-0.36892 0.3052-0.75379 0.62305h-2.3e-4c-0.72163 0.59631-2.0539 1.6968-3.3622 2.7798-0.4404 0.36453-1.2051 0.99783-1.6687 1.3822l-1.4e-4 1.2e-4c-1.3599 1.1238-2.888 2.388-3.9875 3.2978-0.68753 0.5691-1.4609 1.209-1.7985 1.4878-0.09045 0.0747-0.2857 0.2358-0.32568 0.2688l-3.4e-4 1e-4c-0.64203 0.5294-1.2287 1.0065-1.386 1.1272l-3e-5 0.0016c-0.0072 0.0171-0.03395 0.0693-0.08718 0.09984-0.16544 0.09486-0.26603-0.0774-0.26627-0.07764-0.06744-0.11804-0.182-0.7727-0.61704-3.515-0.43716-2.7561-1.2232-7.8043-2.5992-16.642l-1.0909-7.0076-3.4e-4 6e-5 -15.459-99.11-1.9e-4 6e-5c-2.2952-14.676-5.1178-32.765-6.1772-39.606l-4e-4 1e-4 -1.9483-12.572-0.18433-0.06815 0.00479 0.00165-0.00589-0.00196c-0.13873-0.05184-0.30553-0.12494-0.38483-0.18844h-1e-4c-0.01225-0.0098-0.029-0.0247-0.0442-0.04374l-0.01465-0.02096-2.8e-4 3.3e-4c-0.01044-0.01763-0.02203-0.04217-0.02695-0.07318-0.02712-0.1709 0.13672-0.2157 0.16254-0.21978 0.03124-0.00497 0.05936-0.00217 0.0741-3.1e-4l1.8e-4 1.4e-4c0.06894 0.0087 0.17656 0.0441 0.28854 0.0871l0.00138 5e-4 0.03286 0.01297-0.03375-0.27191-0.07237-0.58046c-0.00816-0.0643 0.01826-0.1283 0.0692-0.1684 0.05096-0.0401 0.11935-0.0506 0.17993-0.0276l8.118 3.0735-3.4e-4 1e-4c4.145 1.571 10.286 3.8941 14.272 5.402l0.914 0.34558h1e-4c3.854 1.4606 7.0641 2.6789 7.1761 2.7239l-4e-4 1e-4c4e-4 -1e-4 0.0018 4.6e-4 0.00353 0.00125l-3.3e-4 5e-5c0.24845 0.1024 5.1585 1.9627 5.624 2.1286 0.19833 0.06885 0.83325 0.31275 1.4059 0.5365 0.5699 0.219 2.2581 0.86405 3.7101 1.417l-1.8e-4 1e-4 7.3434 2.7755-2.8e-4 4e-5 2.1885 0.82736c0.14798 0.0559 0.27212 0.10276 0.29914 0.11277l0.0045 0.00177 9.5e-4 3e-4 -3.9e-4 -4e-5c0.18707 0.06895 0.83468 0.31584 1.4669 0.56114l1.1555 0.44156c0.06158 0.0236 0.10604 0.07834 0.1166 0.1435l0.48795 3.0339-3.7e-4 -5e-4c3.2e-4 -5e-5 0.01172 0.07154 0.01282 0.0784z"/> </g> <g fill="#81c3eb"> <path d="m386.13 866.24-21.656-7.659-21.656-7.6592q12.037 79.041 24.075 158.08 18.477-14.075 36.955-28.151l-17.718-114.61z"/> </g> <g> <path d="m420.38 1088.8h3.7e-4 2.3e-4 -2.3e-4 -3.7e-4 3.7e-4 2.3e-4q-2.3e-4 0-6e-4 0z"/> </g> <g fill="#129197"> <path d="m389.14 926.69c3.412 23.641 0.9489 44.778-5.9034 47.28-7.326 2.6752-16.739-16.729-20.54-43.42-3.7858-26.589-0.18257-47.675 7.5411-47.218 7.2269 0.4278 15.502 19.797 18.902 43.359z"/> </g> <g fill="#94e05c"> <path d="m380.63 908.22s-2.4502 2.1257-3.7103 0.3432c0 0-1.0988-2.9505-2.637-0.28827 0 0-2.4243 7.1798-1.4656 14.196 0 0 1.0321 14.07 4.8747 15.305 0 0 3.0269-4.8092 4.1704-0.0589 0 0 0.97948 5.9405 1.4869 7.1447 0 0 0.91607 2.6147 1.1138 4.2773 0 0 0.43344 5.6243 1.5259 9.7457 0 0 0.84622 3.5853 0.96988 4.7313 0 0 2.523-4.0275 2.0029-14.304 0 0-0.45947-7.052-0.68033-8.8576 0 0-0.38537-8.1418-0.54992-10.646 0 0-0.37812-7.4984-1.3932-6.3911 0 0-1.2131-2.6574-2.0983-4.6662-0.89102-2.0186-3.1869-9.8517-3.6099-10.53z"/> <path d="m384.79 918.41-4.9049-10.578s0.40716-2.2679-0.01522-3.5118c-0.42405-1.2505-0.71172 0.44554-1.1615 0.46254-0.45032 0.0173-0.88639 1.3091-1.2971 0.1888-0.4112-1.1212-0.53671-0.8328-0.68506-0.1141-0.14865 0.71813-0.44553 1.8746-0.58991 1.1642-0.1437-0.70854-0.86096-0.39214-1.0054-1.1039-0.14444-0.7126-0.26306-2.7133-0.58273-2.2759-0.31993 0.438-0.66965 1.8924-0.6525 2.6109 0.01761 0.72145 0.02732 2.8893-0.27417 2.9046-0.3013 0.0159-0.99652 0.63533-1.2513-0.2266-0.25506-0.86207-0.93234-3.752-0.794-4.6265 0.13647-0.8768 1.5382 0.0031 1.3281-1.0502-0.2092-1.0518-0.69058-3.3644-0.54724-3.6953 0.14438-0.3285 0.12463-4.057 0.4074-4.4827 0.28028-0.4233 1.3994 1.152 1.3839 0.157 0 0-0.3862-2.9818-0.61723-3.4125-0.2316-0.43197-0.54343-1.7124-0.82034-1.5849-0.28076 0.1331-0.26551 1.1301 0.0105 1.5638 0.27597 0.43226 0.69113 2.1454 0.56314 2.1433-0.12917-0.00206-1.2458 0.26546-1.4327-0.7369-0.18784-1.0052-0.36416-3.4365-0.0997-4.2796 0.26602-0.83895 1.0982-0.6641 1.4151-0.22665 0.31677 0.43535 0.49044-0.40325 0.47414-1.107-0.01772-0.7017-1.6535-3.1469-2.0401-3.1696 0 0 10.096 3.0138 16.477 36.315 0 0-2.6167-11.371-3.3723-12.018 0 0-0.2312 0.84057-0.48468 0.7163-0.25412-0.12512-1.8108-2.6846-1.7901-1.9887 0.01947 0.6938 0.98896 3.005 1.696 3.2379 0.69997 0.2348 0.77922 0.50557 0.9948 1.7368 0.21674 1.2278 0.6093 3.1374 0.71027 4.3744 0.09957 1.2397 0.17063 4.9959-1.0421 2.6123z"/> <path d="m370.95 893.77s-0.24487 0.71656-0.27588 1.7235c-0.03044 1.0116 0.0939 1.8797 0.0939 1.8797s0.28396 0.43083 0.50739 0.4319c0.22409 0.00174 0.71381-0.7213 0.5694-1.7286-0.1445-1.0066-0.89481-2.3065-0.89481-2.3065z"/> <path d="m369.19 885.1s-0.45852 4.1501-0.92849 4.5691c-0.47297 0.42076-1.1607 1.8559-1.3014 2.4395-0.14196 0.5824-1.0594-0.4605-0.77377-1.6252 0.28513-1.1624 1.1222-3.7462 0.81262-4.0468-0.31131-0.30263-1.1339 2.4315-1.466 3.5902-0.33472 1.1652-0.49387 2.925-0.55277 4.1063-0.06173 1.1828 0.42965 4.2946 0.00879 4.8923-0.42454 0.601-2.2381 3.6359-2.6917 5.7698-0.4584 2.1458-1.0579 3.7521-1.0911 5.9016-0.03162 2.1559-0.31482-3.4108-0.30834-5.4612 0 0 0.37807-11.592 3.8766-18.609-5e-4 0.0022 2.9429-2.6084 4.4156-1.5267z"/> <path d="m363.84 938.34s-1.6635-8.2294-1.2438-9.0718c0.41744-0.83915 0.5533-1.0232 1.235 0.45005 0.67643 1.4669 1.6722 3.9506 2.1016 5.2815 0.43073 1.3252 1.5058 2.8444 1.6567 3.9031 0.15149 1.0606 0.33326 3.6738 0.69147 4.8465 0.35623 1.1736 0.65424 1.2662 1.1541 1.7811 0.49723 0.51274 1.3981 1.2429 2.0418 2.4935 0.64179 1.2436 1.5034 2.7358 1.6254 4.5608 0.12225 1.828 0.23965 4.5908 0.47824 5.6128 0.23859 1.0233 0.80596 2.7281 0.55862 3.5819-0.24951 0.85496-0.53784 0.78685-0.30029 2.1217 0.23837 1.3386 1.2832 5.3947 1.5225 6.0998-1.8e-4 -5e-4 -6.826-6.3567-11.521-31.661z"/> </g> <g fill="#c2c2c2"> <path d="m389.21 929.63v3e-4 -3e-4 3e-4 -3e-4 3e-4q0-3e-4 0-3e-4z"/> </g> </g> </svg>