<?xml version="1.0" encoding="utf-8"?>
<svg xmlns="http://www.w3.org/2000/svg" xmlns:xlink="http://www.w3.org/1999/xlink" version= "1.1" width="1434px" height="1435px" viewBox="-177 347 1434 1435">
<g id="layer1">
<g style="fill:rgb(0,174,199); fill-opacity:1.0; stroke-linejoin: miter">
<path d="M-177.001,346.11682C-177.23497,346.11682,-177.45935,346.20978,-177.62479,346.3752C-177.79022,346.54065,-177.88318,346.765,-177.88318,346.999L-177.88217,1782.0C-177.88217,1782.4872,-177.48721,1782.8822,-177.0,1782.8822L1257.001,1782.8832C1257.235,1782.8832,1257.4594,1782.7902,1257.6248,1782.6248C1257.7902,1782.4594,1257.8832,1782.235,1257.8832,1782.001L1257.8822,347.0C1257.8822,346.5128,1257.4872,346.11783,1257.0,346.11783L-177.001,346.11682 Z"/>
</g>
</g>
<g id="layer2">
<g>
<g style="fill:rgb(18,145,151); fill-opacity:1.0; stroke-linejoin: miter">
<path d="M854.70355,1102.1669C852.6044,1258.3765,724.27075,1383.3068,568.0624,1381.2101C411.8531,1379.1124,286.92224,1250.7806,289.01996,1094.5715C291.11755,938.36237,419.44965,813.42883,575.65924,815.5272C731.8693,817.62463,856.802,945.95807,854.70355,1102.1669 Z"/>
</g>
<g style="fill:rgb(148,224,92); fill-opacity:1.0; stroke-linejoin: miter">
<path d="M721.86884,975.8421C721.86884,975.8421,660.71216,987.6331,639.0331,975.628C639.0331,975.628,624.7145,956.52936,583.52057,972.1917C583.52057,972.1917,511.0368,1014.4363,509.51538,1057.6583C509.51538,1057.6583,488.3472,1142.9525,563.75793,1155.6647C563.75793,1155.6647,643.31287,1130.6188,652.9147,1161.3693C652.9147,1161.3693,655.1456,1199.236,662.32874,1207.4349C662.32874,1207.4349,673.91833,1224.9913,672.87305,1235.4906C672.87305,1235.4906,664.1901,1270.4955,674.77765,1297.6798C674.77765,1297.6798,681.7282,1321.1879,680.72675,1328.3816C680.72675,1328.3816,750.20917,1309.4865,772.91724,1244.9457C772.91724,1244.9457,786.2765,1200.091,787.3375,1188.3895C787.3375,1188.3895,806.2391,1136.4017,811.0163,1120.2587C811.0163,1120.2587,828.06085,1071.8395,800.6488,1077.7904C800.6488,1077.7904,781.76044,1059.5104,768.3011,1045.8126C754.81305,1032.1222,729.10675,980.43854,721.86884,975.8421 Z"/>
</g>
<g style="fill:rgb(148,224,92); fill-opacity:1.0; stroke-linejoin: miter">
<path d="M781.96344,1044.2106L706.4266,972.9278C706.4266,972.9278,723.01154,958.74493,717.6645,950.57794C712.3186,942.3852,700.3327,953.0357,690.31024,952.9014C680.31287,952.76666,666.54565,960.68634,661.1792,953.3975C655.81287,946.11847,652.1522,947.87115,646.6185,952.3133C641.0956,956.74054,630.98535,963.81866,630.1312,959.29034C629.28735,954.7774,612.8711,956.36774,612.0276,951.8492C611.1841,947.3299,614.96344,934.7751,606.7406,937.3642C598.542,939.9445,586.5634,948.81647,584.6851,953.28375C582.8078,957.7657,576.2662,971.17975,569.872,971.0931C563.496,971.0079,547.0646,974.3907,544.4049,968.94904C541.7446,963.5091,536.52405,945.4112,542.06824,940.0986C547.5952,934.7587,574.2438,940.8366,573.089,934.2126C571.95044,927.5981,568.99207,913.0607,573.03613,911.05145C577.0979,909.05804,588.31384,885.77856,595.6492,883.17725C602.9502,880.5757,621.9477,890.73804,624.77203,884.4663C624.77203,884.4663,625.9298,865.5668,622.3227,862.81213C618.7127,860.057,616.0733,851.93567,609.7349,852.72107C603.3132,853.5394,600.5042,859.8197,605.0273,862.5797C609.56586,865.33997,613.0415,876.19727,610.30884,876.1609C607.5513,876.12354,582.96643,877.59595,582.1383,871.29004C581.30084,864.9696,585.1528,849.70056,593.4019,844.41394C601.70416,839.1295,618.9698,840.2499,624.397,843.02893C629.8418,845.80115,636.2726,840.4823,638.1687,836.00745C640.0304,831.54065,612.5424,816.08875,604.33966,815.97986C604.33966,815.97986,819.8897,834.98035,853.96136,1056.0731C853.96136,1056.0731,832.0005,980.0296,816.58215,975.3216C816.58215,975.3216,808.3141,980.616,802.86255,979.639C797.41187,978.66095,770.3335,961.17535,768.45325,965.66656C766.5576,970.1419,780.9236,985.6451,796.40955,987.6453C811.8275,989.66364,812.73486,991.47736,813.51404,999.59863C814.3273,1007.7053,816.88806,1020.3616,814.9778,1028.4288C813.027,1036.5072,801.781,1060.683,781.96344,1044.2106 Z"/>
</g>
<g style="fill:rgb(148,224,92); fill-opacity:1.0; stroke-linejoin: miter">
<path d="M558.3224,880.87695C558.3224,880.87695,550.9974,885.2793,547.25806,891.521C543.5204,897.78,543.44775,903.18506,543.44775,903.18506C543.44775,903.18506,548.0386,905.9363,552.69617,906.01514C557.3732,906.0935,569.8834,901.7534,569.968,895.4446C570.0526,889.1367,558.3224,880.87695,558.3224,880.87695 Z"/>
</g>
<g style="fill:rgb(148,224,92); fill-opacity:1.0; stroke-linejoin: miter">
<path d="M548.1285,826.68665C548.1285,826.68665,525.92334,852.51135,514.9701,855.0702C503.9979,857.6278,485.67798,866.37634,481.08594,869.9346C476.47888,873.4758,461.08752,866.9657,470.28357,859.88245C479.49872,852.78406,504.27634,836.8993,498.85294,835.0409C493.41376,833.1752,468.59955,849.9625,458.49677,857.0248C448.36865,864.0956,440.0373,874.76904,435.41504,881.9204C430.74347,889.0654,431.4115,907.9902,421.35727,911.4587C411.26144,914.9257,367.32956,932.3453,352.6125,944.76874C337.87115,957.17474,322.0579,966.26776,315.49417,978.7917C308.9647,991.3166,318.98776,958.7067,324.78268,946.70404C324.78268,946.70404,364.42654,878.2687,453.31854,836.21326C453.30273,836.22424,520.89514,820.02747,548.1285,826.68665 Z"/>
</g>
<g style="fill:rgb(148,224,92); fill-opacity:1.0; stroke-linejoin: miter">
<path d="M288.96448,1140.2734C288.96448,1140.2734,280.4998,1091.5115,290.56635,1087.1477C300.63074,1082.7827,303.6718,1081.8682,312.38782,1091.0449C321.05508,1100.2131,332.97638,1115.6409,337.41022,1123.8113C341.89435,1131.9673,358.14386,1142.0911,358.0589,1148.3918C357.97443,1154.6995,354.1164,1169.9685,357.6721,1177.214C361.19336,1184.4691,366.64716,1185.4462,374.81012,1189.159C382.95728,1192.8639,398.3613,1198.4686,407.3359,1206.7101C416.32767,1214.941,428.96542,1225.0096,426.0801,1235.7802C423.19595,1246.5524,417.52216,1262.6819,419.25708,1268.9994C420.9893,1275.3317,427.22238,1286.2203,419.88837,1290.6368C412.5296,1295.0399,407.08478,1294.0787,407.89227,1302.1757C408.70526,1310.2985,417.49194,1335.6163,420.15466,1340.1534C420.1507,1340.1498,307.28644,1290.3167,288.96448,1140.2734 Z"/>
</g>
<g style="fill:rgb(194,194,194); fill-opacity:1.0; stroke-linejoin: miter">
<path d="M846.18317,1121.1102L846.18317,1121.1115L846.18317,1121.1112L846.18317,1121.1102L846.18317,1121.1115L846.18317,1121.1102L846.18317,1121.1112Q846.18317,1121.1102,846.18317,1121.1102 Z"/>
</g>
</g>
<g>
<g style="fill:rgb(255,255,255); fill-opacity:1.0; stroke-linejoin: miter">
<path d="M963.02325,1105.7871C963.8561,1105.3528,967.3661,1106.5206,973.6539,1107.374C974.1285,1107.4385,973.9392,1107.7501,974.02094,1107.9791C974.0766,1108.1364,973.87665,1108.4178,974.1765,1108.443C975.18524,1108.5281,974.5598,1107.1158,975.8756,1104.4867C975.88495,1104.5981,976.16925,1107.6322,976.1015,1108.424C976.04535,1109.0782,976.6187,1108.7286,979.6866,1109.3668C980.49927,1109.536,981.1926,1109.2264,981.94275,1109.236C982.43616,1109.2428,982.95435,1108.8749,983.1034,1108.5416C983.2471,1108.2197,983.0939,1108.3711,985.77893,1108.1207C987.0221,1108.005,986.9914,1108.1202,987.2076,1107.075C987.40594,1106.1174,987.5248,1105.1416,987.8476,1104.2153C987.99854,1104.2413,988.0002,1104.3478,987.9882,1104.4363C987.8502,1105.4596,988.16516,1106.4454,988.22034,1107.4517C988.2386,1107.7849,988.4054,1107.944,988.6765,1107.8726C989.4779,1107.6617,990.32166,1108.0765,991.104,1107.6858C991.1343,1107.6699,991.17926,1107.6799,991.2167,1107.6843C992.4044,1107.8312,993.6006,1107.6659,994.76874,1107.5819C996.2984,1107.4718,997.8342,1107.6627,999.35614,1107.3997C1001.757,1106.985,1000.9618,1108.4844,1002.23645,1103.5366C1002.2693,1103.4072,1002.27515,1103.2734,1002.49567,1103.1398C1002.3262,1104.4728,1002.6627,1105.0789,1002.6501,1106.6677C1002.6478,1106.9128,1002.78253,1106.9606,1002.97156,1106.9517C1003.7349,1106.9148,1004.4824,1107.135,1005.2719,1106.8983C1005.8429,1106.7267,1006.5037,1106.9556,1007.12744,1106.8652C1007.23914,1106.8486,1007.43134,1106.9214,1007.48083,1107.0109C1007.9582,1107.8804,1009.07446,1107.1796,1009.38824,1107.7211C1009.6801,1108.2258,1010.3173,1108.4576,1010.8862,1108.2205C1011.8009,1107.8391,1029.8857,1106.388,1042.1912,1105.0707C1043.4596,1104.935,1044.254,1105.2617,1045.2402,1104.1577C1046.1609,1103.1262,1049.2461,1100.1111,1049.4102,1099.9807C1049.3818,1100.4252,1049.2417,1100.8192,1048.9897,1101.1805C1044.9719,1106.9465,1044.8617,1106.5667,1045.1669,1108.2958C1045.3959,1109.5972,1044.4362,1110.8301,1043.4001,1111.4922C1042.1622,1112.2826,993.3599,1125.5641,987.7759,1127.5095C984.33386,1128.709,983.62213,1128.2205,983.94885,1129.7236C984.8978,1134.0881,984.10846,1139.0559,983.56964,1140.0667C980.5647,1145.7146,975.6893,1144.5593,973.645,1142.4347C972.7958,1141.5516,971.6774,1139.7379,971.57684,1138.4934C971.4977,1137.504,972.5953,1134.5715,972.3294,1133.1409C972.1383,1132.113,972.4363,1132.3243,971.4787,1132.529C970.29944,1132.78,968.7253,1133.693,967.7077,1134.3378C961.26764,1138.4243,961.4783,1137.6709,961.4051,1138.9259C960.41394,1155.8601,959.9224,1178.4258,958.4263,1188.1521C956.8694,1198.276,950.16705,1214.923,946.50287,1212.011C943.1208,1209.3229,939.9605,1192.2998,939.7495,1191.337C938.6089,1186.1265,938.8059,1184.164,940.9841,1146.4604C941.21295,1142.4995,942.7604,1139.2876,940.3514,1136.7611C939.6797,1136.057,935.85504,1133.1146,933.25574,1131.6488C932.66736,1131.3165,931.996,1131.0931,931.5275,1130.5375C930.36884,1129.165,930.616,1132.4263,930.6174,1132.7654C930.62463,1134.7888,930.7278,1136.9149,929.484,1138.588C926.0169,1143.2487,919.8912,1142.005,918.9914,1137.9854C917.86505,1132.954,918.561,1130.1241,918.97894,1128.0586C919.426,1125.8475,919.8203,1125.5242,919.0927,1125.2365C919.0927,1125.2365,917.96277,1124.6542,882.95386,1110.9004C862.6058,1102.9064,861.2353,1104.8223,861.15094,1098.965C861.12274,1097.0312,859.4322,1094.9906,858.48157,1093.3816C858.1589,1092.8357,858.0084,1092.2156,857.6458,1091.6913C857.5044,1091.4877,857.5687,1091.2335,857.7243,1090.8466C858.0038,1091.6102,861.486,1095.56,862.088,1096.2054C862.088,1096.2054,894.7365,1102.4401,894.06055,1102.3622C895.5909,1102.5386,896.2393,1103.3386,896.24615,1102.5516C896.249,1102.1564,896.4186,1102.0238,896.8208,1102.1484C897.1409,1102.2476,897.49854,1102.138,897.82513,1102.2811C897.9799,1102.3488,898.07715,1102.2189,898.13873,1102.1023C898.3258,1101.7491,898.5481,1101.7074,898.9617,1101.7908C900.16266,1102.0326,901.39056,1102.1378,902.5941,1102.368C903.73267,1102.5859,902.9278,1101.777,903.8456,1098.2701C904.1314,1098.8546,904.1202,1099.4191,904.2419,1099.9451C904.8504,1102.5789,904.58154,1102.6696,904.9702,1102.7233C905.7911,1102.838,915.03394,1104.1766,916.4565,1104.4683C917.64264,1104.7109,917.19867,1104.1407,918.0159,1100.8374C918.03937,1100.9965,918.556,1103.5273,918.5653,1104.23C918.5771,1105.1195,921.15216,1105.1549,921.87085,1105.2365C923.116,1105.3784,922.2433,1105.8698,922.4543,1106.5273C922.9174,1106.2758,923.4195,1106.3918,923.8189,1106.5205C925.44604,1107.0457,927.0752,1106.597,928.6997,1106.6359C929.06494,1106.6447,929.2729,1106.3838,929.2812,1106.0045C929.3054,1104.8652,929.6741,1103.7793,929.792,1102.6553C929.8085,1102.5005,929.8419,1102.3022,930.01056,1102.3187C930.30176,1102.3475,930.5227,1106.4838,931.1424,1106.4287C932.0873,1106.3442,930.8418,1105.3567,932.45,1105.3429C933.0588,1105.3386,941.45795,1104.6613,942.0487,1104.5314C942.1972,1104.4993,942.46936,1104.433,942.4724,1104.7437C942.47675,1105.1632,942.9832,1105.0385,943.0256,1104.7992C943.0574,1104.6233,942.9896,1104.4001,942.8454,1104.3735C942.49054,1104.3079,943.60724,1071.1089,947.5385,1058.6011C947.73834,1057.9635,948.7556,1054.9644,948.8591,1053.8262C949.0066,1052.2107,949.8648,1053.2556,944.11664,1050.1522C938.869,1047.3187,919.3106,1037.3972,919.20215,1037.3433C918.5147,1036.9993,918.9018,1035.4272,918.94745,1034.4226C918.96826,1033.9841,917.6823,1034.0754,944.39636,1038.5582C954.9102,1040.3228,954.7577,1039.94,954.4702,1040.6437C954.02216,1041.7396,953.829,1042.9221,953.36035,1044.0135C953.3002,1044.1538,953.1941,1044.3601,953.4677,1044.4177C953.68146,1044.4628,953.8205,1044.4457,953.91406,1044.1544C955.28754,1039.8771,955.6967,1039.1528,955.664,1038.8159C955.5782,1037.9313,956.9941,1037.7546,957.2041,1038.7834C957.316,1039.3324,957.57367,1039.8446,957.8557,1040.3339C957.932,1040.4652,993.33514,1037.8778,993.8564,1037.7042C994.0296,1037.6466,994.2687,1037.6617,994.238,1038.0016C994.0506,1040.0736,994.3563,1040.8003,993.2797,1041.0255C993.246,1041.0323,962.67645,1053.2518,962.61646,1053.3591C962.3192,1053.8894,963.2905,1056.1301,963.4314,1056.7686C966.0912,1068.807,963.034,1105.6763,963.0227,1105.7888 Z"/>
</g>
<g style="fill:rgb(255,255,255); fill-opacity:1.0; stroke-linejoin: miter">
<path d="M944.21387,1252.32L944.2208,1252.3031L944.21735,1252.3115L944.2102,1252.3286C941.4058,1259.2307,938.4186,1266.0359,935.2586,1272.7316L915.6767,1263.4901C918.6668,1257.1539,921.49615,1250.7087,924.1499,1244.1775L924.14294,1244.1943L924.1463,1244.1859 Z"/>
</g>
<g style="fill:rgb(255,255,255); fill-opacity:1.0; stroke-linejoin: miter">
<path d="M919.75934,1302.3468L919.7589,1302.3495C916.0294,1308.8103,912.13873,1315.1421,908.0765,1321.3652L889.9442,1309.529C893.7887,1303.6392,897.4746,1297.64,901.00415,1291.5238 Z"/>
</g>
<g style="fill:rgb(255,255,255); fill-opacity:1.0; stroke-linejoin: miter">
<path d="M888.6647,1348.5927L888.66425,1348.5955C884.1001,1354.4698,879.38947,1360.2042,874.52295,1365.8107L858.1711,1351.616C862.7868,1346.2986,867.23425,1340.8846,871.5633,1335.3104 Z"/>
</g>
<g style="fill:rgb(255,255,255); fill-opacity:1.0; stroke-linejoin: miter">
<path d="M851.58984,1390.1482L851.5894,1390.1509C846.27344,1395.3483,840.81824,1400.4009,835.2314,1405.3009L820.9535,1389.0215C826.24725,1384.3779,831.41144,1379.5955,836.4489,1374.6676 Z"/>
</g>
<g style="fill:rgb(255,255,255); fill-opacity:1.0; stroke-linejoin: miter">
<path d="M809.2209,1426.3047L809.22064,1426.3074C803.25903,1430.7306,797.1598,1435.0071,790.9622,1439.1055L779.0183,1421.044C784.89105,1417.1605,790.66376,1413.1129,796.3139,1408.9182 Z"/>
</g>
<g style="fill:rgb(255,255,255); fill-opacity:1.0; stroke-linejoin: miter">
<path d="M762.3473,1456.3954L762.34686,1456.3981C755.83777,1459.9749,749.24054,1463.3723,742.53094,1466.5991L733.1472,1447.0842C739.50793,1444.0256,745.7415,1440.8152,751.91437,1437.4214 Z"/>
</g>
<g style="fill:rgb(255,255,255); fill-opacity:1.0; stroke-linejoin: miter">
<path d="M711.82117,1479.8461L711.8209,1479.8485C704.8937,1482.5035,697.88275,1484.9741,690.7927,1487.2565L684.1587,1466.6445C690.86304,1464.4868,697.51697,1462.141,704.0673,1459.6293 Z"/>
</g>
<g style="fill:rgb(255,255,255); fill-opacity:1.0; stroke-linejoin: miter">
<path d="M658.5758,1496.1798L658.57556,1496.1825C651.3692,1497.8595,644.04,1499.3575,636.7069,1500.6458L632.9605,1479.318C639.90656,1478.0981,646.83435,1476.6826,653.6614,1475.0914 Z"/>
</g>
<g style="fill:rgb(255,255,255); fill-opacity:1.0; stroke-linejoin: miter">
<path d="M603.5256,1505.0713L603.5254,1505.0735C596.1877,1505.743,588.7754,1506.2197,581.34827,1506.4926L580.55383,1484.8528C587.59247,1484.5948,594.59796,1484.1444,601.55115,1483.5076 Z"/>
</g>
<g style="fill:rgb(255,255,255); fill-opacity:1.0; stroke-linejoin: miter">
<path d="M547.9159,1506.3519L547.9157,1506.3546C540.50287,1506.0182,533.1085,1505.4866,525.6405,1504.7451L527.7805,1483.1976C534.85596,1483.9003,541.8697,1484.4043,548.88904,1484.7202 Z"/>
</g>
<g style="fill:rgb(255,255,255); fill-opacity:1.0; stroke-linejoin: miter">
<path d="M492.38092,1500.079L492.50806,1500.1014L492.4899,1500.0983L492.36163,1500.0758C485.05225,1498.7452,477.75632,1497.2112,470.6023,1495.5043L475.62747,1474.4414C482.41467,1476.0607,489.30032,1477.5082,496.24,1478.7719L496.1117,1478.7491L496.12958,1478.7521 Z"/>
</g>
<g style="fill:rgb(255,255,255); fill-opacity:1.0; stroke-linejoin: miter">
<path d="M438.46463,1486.4304L438.4643,1486.4331C431.3596,1484.1055,424.32144,1481.5846,417.4078,1478.8926L425.26514,1458.7148C431.80405,1461.2612,438.47693,1463.6514,445.1981,1465.8503 Z"/>
</g>
<g style="fill:rgb(255,255,255); fill-opacity:1.0; stroke-linejoin: miter">
<path d="M386.7795,1465.4854L386.7791,1465.4882C380.08786,1462.2208,373.51297,1458.7858,367.04385,1455.1775L377.59155,1436.2666C383.71384,1439.6812,389.94095,1442.935,396.27377,1446.0245 Z"/>
</g>
<g style="fill:rgb(255,255,255); fill-opacity:1.0; stroke-linejoin: miter">
<path d="M338.51602,1437.688L338.51566,1437.6907C332.33353,1433.5385,326.27377,1429.2251,320.34656,1424.7579L333.37933,1407.466C338.99628,1411.699,344.7257,1415.7773,350.5837,1419.709 Z"/>
</g>
<g style="fill:rgb(255,255,255); fill-opacity:1.0; stroke-linejoin: miter">
<path d="M294.49396,1403.5607L294.49365,1403.5634C288.94974,1398.6223,283.51337,1393.5082,278.2538,1388.2836L293.51385,1372.9208C298.50653,1377.8802,303.63336,1382.704,308.89624,1387.3916 Z"/>
</g>
<g style="fill:rgb(255,255,255); fill-opacity:1.0; stroke-linejoin: miter">
<path d="M255.51189,1363.7736L255.51158,1363.7762C250.68037,1358.1212,246.01097,1352.3483,241.49333,1346.4429L258.6916,1333.2861C262.97974,1338.8917,267.3861,1344.3392,271.9715,1349.7035 Z"/>
</g>
<g style="fill:rgb(255,255,255); fill-opacity:1.0; stroke-linejoin: miter">
<path d="M222.27391,1319.0779L222.2736,1319.0806C218.26254,1312.8411,214.4024,1306.4656,210.73123,1300.0123L229.55255,1289.3058C233.02957,1295.4183,236.68567,1301.4563,240.48549,1307.3641 Z"/>
</g>
<g style="fill:rgb(255,255,255); fill-opacity:1.0; stroke-linejoin: miter">
<path d="M195.40094,1270.3008L195.40067,1270.3035C192.26749,1263.5654,189.31236,1256.7329,186.54364,1249.8151L206.64655,1241.769C209.2651,1248.3118,212.06906,1254.7954,215.03375,1261.1675 Z"/>
</g>
<g style="fill:rgb(255,255,255); fill-opacity:1.0; stroke-linejoin: miter">
<path d="M169.98053,997.9977L169.9802,997.9999C171.80374,990.7687,173.81671,983.62244,176.01257,976.56696L196.68768,983.0012C194.6086,989.6819,192.70302,996.4464,190.97633,1003.2924 Z"/>
</g>
<g style="fill:rgb(255,255,255); fill-opacity:1.0; stroke-linejoin: miter">
<path d="M187.26627,945.04877L187.26595,945.05145C190.05986,938.1389,193.03566,931.3279,196.18504,924.6247L215.78311,933.8329C212.80222,940.17694,209.98499,946.6252,207.34093,953.1655 Z"/>
</g>
<g style="fill:rgb(255,255,255); fill-opacity:1.0; stroke-linejoin: miter">
<path d="M211.6334,894.9839L211.63307,894.9866C215.34868,888.5201,219.2368,882.168,223.2848,875.94366L241.43713,887.74817C237.60529,893.6405,233.92322,899.65625,230.40665,905.7746 Z"/>
</g>
<g style="fill:rgb(255,255,255); fill-opacity:1.0; stroke-linejoin: miter">
<path d="M242.64937,848.6835L242.64897,848.68616C247.19965,842.80444,251.90834,837.0521,256.761,831.4423L273.13727,845.60864C268.54056,850.9225,264.0829,856.36743,259.7731,861.93616 Z"/>
</g>
<g style="fill:rgb(255,255,255); fill-opacity:1.0; stroke-linejoin: miter">
<path d="M279.65363,807.0642L279.65338,807.0664C284.96008,801.8564,290.4091,796.79254,295.98584,791.8845L310.2912,808.1393C305.00873,812.78815,299.84656,817.5859,294.82043,822.5185 Z"/>
</g>
<g style="fill:rgb(255,255,255); fill-opacity:1.0; stroke-linejoin: miter">
<path d="M321.9606,770.8371L321.9602,770.8398C327.91504,766.40063,334.00653,762.11426,340.1969,758.00525L352.17142,776.0459C346.30838,779.93756,340.53726,783.9988,334.89716,788.2009 Z"/>
</g>
<g style="fill:rgb(255,255,255); fill-opacity:1.0; stroke-linejoin: miter">
<path d="M368.78195,740.6667L368.78162,740.6694C375.28384,737.07715,381.87955,733.66595,388.5815,730.4289L397.99908,749.9271C391.65143,752.993,385.4064,756.2223,379.24756,759.62286 Z"/>
</g>
<g style="fill:rgb(255,255,255); fill-opacity:1.0; stroke-linejoin: miter">
<path d="M419.26978,717.1283L419.2695,717.13074C426.19766,714.45776,433.19104,711.9792,440.28265,709.68304L446.95227,730.28357C440.24524,732.45496,433.61145,734.8065,427.05814,737.3328 Z"/>
</g>
<g style="fill:rgb(255,255,255); fill-opacity:1.0; stroke-linejoin: miter">
<path d="M472.48438,700.7036L472.48404,700.70636C479.7156,699.00604,486.99194,697.5058,494.34955,696.20026L498.13242,717.52045C491.16537,718.75665,484.2827,720.1756,477.43558,721.7836 Z"/>
</g>
<g style="fill:rgb(255,255,255); fill-opacity:1.0; stroke-linejoin: miter">
<path d="M527.5153,691.7185L527.51514,691.72125C534.85815,691.03296,542.2622,690.5446,549.6949,690.2589L550.52625,711.89636C543.48193,712.1673,536.4857,712.62836,529.52734,713.2783 Z"/>
</g>
<g style="fill:rgb(255,255,255); fill-opacity:1.0; stroke-linejoin: miter">
<path d="M583.13007,690.34235L583.30347,690.3513L583.31274,690.35144L583.13916,690.34296C590.53827,690.66327,597.94586,691.1836,605.39996,691.911L603.29755,713.4615C596.23505,712.7722,589.20776,712.2794,582.2026,711.9758L582.02924,711.9669L582.01996,711.96655 Z"/>
</g>
<g style="fill:rgb(255,255,255); fill-opacity:1.0; stroke-linejoin: miter">
<path d="M638.67535,696.5214L638.6751,696.5241C646.01086,697.84326,653.2765,699.3581,660.45544,701.05804L655.46643,722.12897C648.6727,720.52014,641.7796,719.0827,634.8351,717.8313 Z"/>
</g>
<g style="fill:rgb(255,255,255); fill-opacity:1.0; stroke-linejoin: miter">
<path d="M692.6113,710.07715L692.85254,710.15845L692.86115,710.16156L692.61975,710.07996C699.74084,712.39594,706.7528,714.8943,713.6821,717.5788L705.85944,737.76984C699.30316,735.22974,692.6595,732.8626,685.9219,730.67084L685.6804,730.58905L685.67194,730.5865 Z"/>
</g>
<g style="fill:rgb(255,255,255); fill-opacity:1.0; stroke-linejoin: miter">
<path d="M744.33215,730.9327L744.33185,730.9352C751.02783,734.1845,757.61584,737.6122,764.0889,741.2078L753.5736,760.1369C747.44104,756.73016,741.21533,753.4907,734.8721,750.4103 Z"/>
</g>
<g style="fill:rgb(255,255,255); fill-opacity:1.0; stroke-linejoin: miter">
<path d="M792.6452,758.6478L792.6448,758.6505C798.83856,762.78973,804.89703,767.08624,810.83575,771.54645L797.8326,788.86066C792.2033,784.63306,786.4788,780.5732,780.60895,776.6477 Z"/>
</g>
<g style="fill:rgb(255,255,255); fill-opacity:1.0; stroke-linejoin: miter">
<path d="M836.72424,792.6983L836.7239,792.701C842.29095,797.6398,847.71014,802.72095,852.99164,807.9496L837.75757,823.3372C832.75134,818.38135,827.6259,813.576,822.3499,808.8925 Z"/>
</g>
<g style="fill:rgb(255,255,255); fill-opacity:1.0; stroke-linejoin: miter">
<path d="M875.7747,832.42053L875.7743,832.4227C880.6165,838.0653,885.29443,843.8279,889.82275,849.72705L872.64667,862.9119C868.35925,857.32697,863.92346,851.86255,859.3392,846.51776 Z"/>
</g>
<g style="fill:rgb(255,255,255); fill-opacity:1.0; stroke-linejoin: miter">
<path d="M909.0891,877.0594L909.08887,877.0621C913.1157,883.29626,916.9768,889.6488,920.66376,896.1045L901.86096,906.8435C898.3686,900.7284,894.71185,894.7118,890.8972,888.80334 Z"/>
</g>
<g style="fill:rgb(255,255,255); fill-opacity:1.0; stroke-linejoin: miter">
<path d="M936.0449,925.7897L936.0446,925.79236C939.1926,932.52563,942.1548,939.343,944.9378,946.2618L924.8488,954.3424C922.2149,947.7939,919.40796,941.3337,916.42804,934.9571 Z"/>
</g>
<g style="fill:rgb(255,255,255); fill-opacity:1.0; stroke-linejoin: miter">
<path d="M956.1302,977.7668L956.13007,977.7695C958.3219,984.84595,960.32214,991.99304,962.13086,999.2166L941.1256,1004.4755C939.41406,997.63794,937.51984,990.871,935.4452,984.1699 Z"/>
</g>
<g style="fill:rgb(255,255,255); fill-opacity:1.0; stroke-linejoin: miter">
<path d="M186.78117,1142.0594C187.61142,1142.4988,191.12784,1141.3502,197.42041,1140.5323C197.8952,1140.4702,197.70786,1140.1572,197.79086,1139.9287C197.84747,1139.7719,197.64899,1139.4893,197.94885,1139.4657C198.95828,1139.3865,198.3247,1140.7949,199.62613,1143.4316C199.63599,1143.3203,199.93716,1140.288,199.87411,1139.4956C199.8215,1138.8411,200.39276,1139.194,203.46411,1138.573C204.27808,1138.4076,204.96951,1138.7217,205.71964,1138.7162C206.21313,1138.7125,206.72922,1139.0831,206.8764,1139.4172C207.01819,1139.7399,206.86575,1139.5878,209.54979,1139.8531C210.79185,1139.9762,210.76167,1139.8599,210.97212,1140.9066C211.1652,1141.8652,211.27882,1142.842,211.59645,1143.7698C211.74724,1143.7445,211.74962,1143.6383,211.73827,1143.5499C211.60591,1142.5264,211.9262,1141.5421,211.98717,1140.5355C212.00713,1140.2025,212.17494,1140.045,212.44557,1140.1174C213.24571,1140.3329,214.09178,1139.9229,214.87196,1140.3181C214.90224,1140.3336,214.94731,1140.3242,214.98479,1140.3202C216.17308,1140.1803,217.36815,1140.3517,218.53612,1140.4426C220.06459,1140.5618,221.60164,1140.3793,223.12224,1140.651C225.5207,1141.0789,224.73378,1139.5751,225.98067,1144.529C226.01277,1144.6587,226.01796,1144.7926,226.2376,1144.928C226.07555,1143.5939,226.41563,1142.9895,226.41197,1141.4011C226.41121,1141.1558,226.54613,1141.1086,226.73503,1141.119C227.49806,1141.1602,228.24681,1140.9445,229.0352,1141.185C229.60524,1141.3595,230.26717,1141.1343,230.89055,1141.2284C231.00224,1141.245,231.19475,1141.1737,231.24474,1141.0845C231.72655,1140.2175,232.83955,1140.9248,233.15593,1140.3848C233.4507,1139.8821,234.0891,1139.6531,234.65675,1139.8938C235.5692,1140.2806,253.64578,1141.8333,265.94354,1143.2191C267.21112,1143.362,268.00732,1143.0397,268.98755,1144.1497C269.90222,1145.1862,272.9706,1148.2184,273.13385,1148.3494C273.1084,1147.9049,272.97015,1147.5104,272.7204,1147.1475C268.73492,1141.359,268.62286,1141.7383,268.9373,1140.0111C269.1735,1138.7107,268.22098,1137.4727,267.1884,1136.8043C265.95517,1136.0074,217.22804,1122.4528,211.65529,1120.4756C208.2199,1119.2577,207.50566,1119.7422,207.84071,1118.2404C208.81439,1113.8807,208.05249,1108.9092,207.51944,1107.8954C204.54611,1102.2312,199.66452,1103.3585,197.60825,1105.4718C196.75424,1106.35,195.62573,1108.1577,195.518,1109.4016C195.43326,1110.3905,196.5145,1113.3284,196.24057,1114.7579C196.04382,1115.7847,196.34299,1115.5747,195.38641,1115.365C194.20865,1115.1072,192.63962,1114.1857,191.62576,1113.5352C185.20872,1109.4131,185.41481,1110.1674,185.34871,1108.9121C184.45288,1091.9727,184.08765,1069.4034,182.64598,1059.6702C181.14594,1049.5366,174.53708,1032.853,170.85648,1035.7439C167.4595,1038.414,164.20352,1055.4187,163.9873,1056.3801C162.81769,1061.584,163.00342,1063.5475,164.9703,1101.263C165.17685,1105.2253,166.70653,1108.4458,164.28317,1110.9591C163.60777,1111.659,159.76631,1114.5801,157.15897,1116.0309C156.5687,1116.3599,155.89604,1116.58,155.42456,1117.1326C154.25809,1118.4987,154.52356,1115.2386,154.52689,1114.8997C154.5456,1112.8766,154.66061,1110.7507,153.42624,1109.0713C149.98566,1104.3909,143.85292,1105.6003,142.93063,1109.6152C141.77618,1114.64,142.45615,1117.4736,142.86258,1119.5413C143.29727,1121.7554,143.68967,1122.0806,142.96046,1122.3643C142.96046,1122.3643,141.82718,1122.9403,106.74164,1136.497C86.34935,1144.3768,84.98952,1142.4531,84.87233,1148.3093C84.83331,1150.2432,83.131355,1152.2747,82.171646,1153.8779C81.8459,1154.4224,81.692055,1155.0416,81.32648,1155.5637C81.18389,1155.7668,81.24694,1156.0211,81.40012,1156.4094C81.683975,1155.6473,85.1884,1151.7164,85.793846,1151.0743C85.793846,1151.0743,118.4769,1145.0228,117.800354,1145.0967C119.33162,1144.929,119.98448,1144.1326,119.98686,1144.9202C119.98784,1145.3148,120.15654,1145.4487,120.559586,1145.3264C120.88016,1145.2291,121.23721,1145.3406,121.564514,1145.1992C121.719635,1145.1323,121.81624,1145.2628,121.8772,1145.3794C122.06224,1145.7339,122.28436,1145.7772,122.69827,1145.696C123.90065,1145.4609,125.12923,1145.3628,126.33418,1145.139C127.473785,1144.928,126.66437,1145.7322,127.56226,1149.2443C127.8516,1148.6615,127.84346,1148.0963,127.967926,1147.5718C128.59152,1144.941,128.32304,1144.8488,128.71185,1144.7976C129.53365,1144.6875,138.7836,1143.3999,140.20776,1143.1171C141.39531,1142.8809,140.94817,1143.4484,141.74704,1146.7563C141.77118,1146.5972,142.30205,1144.0691,142.31528,1143.3663C142.33208,1142.4777,144.90717,1142.4563,145.6263,1142.3788C146.87233,1142.244,146.00237,1141.747,146.21709,1141.0912C146.6788,1141.3456,147.18152,1141.2322,147.58154,1141.1058C149.21173,1140.5898,150.83832,1141.0477,152.46306,1141.0176C152.82806,1141.011,153.0349,1141.2733,153.04094,1141.652C153.05869,1142.791,153.4213,1143.8792,153.53302,1145.0049C153.54851,1145.1592,153.581,1145.3574,153.74976,1145.3417C154.04092,1145.3146,154.28506,1141.1794,154.90456,1141.2383C155.84882,1141.3281,154.59773,1142.3093,156.20589,1142.3315C156.81435,1142.3403,165.20975,1143.0641,165.79985,1143.1969C165.9479,1143.2312,166.21983,1143.2976,166.22462,1142.9874C166.23137,1142.5681,166.7371,1142.6954,166.77808,1142.9352C166.80882,1143.1108,166.73999,1143.3335,166.59543,1143.3594C166.2404,1143.4233,167.17056,1176.6276,171.03198,1189.1578C171.22858,1189.796,172.22876,1192.8008,172.32587,1193.9402C172.4643,1195.5566,173.32849,1194.5159,167.56284,1197.5876C162.29977,1200.3907,142.68571,1210.203,142.57687,1210.2572C141.8875,1210.5973,142.2659,1212.1709,142.3059,1213.176C142.32425,1213.6141,141.03867,1213.5157,167.77747,1209.1835C178.3013,1207.4781,178.14674,1207.8595,177.86296,1207.1542C177.42097,1206.0555,177.23447,1204.8722,176.77216,1203.7775C176.7128,1203.6373,176.60776,1203.4305,176.88159,1203.3743C177.09554,1203.3308,177.23476,1203.3486,177.32658,1203.6399C178.67618,1207.9255,179.08104,1208.6521,179.04662,1208.9889C178.95598,1209.8728,180.37065,1210.0571,180.58641,1209.0299C180.70139,1208.4812,180.9621,1207.9705,181.24675,1207.4833C181.32394,1207.352,216.71172,1210.1372,217.2321,1210.3136C217.4052,1210.3716,217.64418,1210.3582,217.61516,1210.0186C217.43947,1207.9456,217.74895,1207.2205,216.67369,1206.9891C216.64021,1206.982,186.13963,1194.5917,186.08038,1194.484C185.78606,1193.9513,186.76996,1191.7164,186.91449,1191.079C189.64153,1179.0562,186.79124,1142.1709,186.78072,1142.0582 Z"/>
</g>
</g>
<g style="fill:rgb(255,255,255); fill-opacity:1.0; stroke-linejoin: miter">
<path d="M795.5741,893.0748C796.35297,890.22687,796.73224,887.2878,796.70233,884.3085C796.52136,866.6904,782.042,852.50494,764.42413,852.68494C757.09467,852.7586,749.9607,855.3771,744.3368,860.05695C739.3351,864.21796,735.70575,869.8423,733.97064,876.06024C722.17004,875.0791,711.5875,882.6688,708.36896,893.6215C706.57983,893.2331,704.754,893.0464,702.91504,893.0659C689.3564,893.20465,678.4375,904.2692,678.57556,917.8276C678.7146,931.38763,689.85736,942.2253,703.41675,942.08704L789.2662,941.20966C802.8253,941.07117,813.7436,930.00574,813.6052,916.4466C813.4916,905.3537,806.05237,895.9493,795.5741,893.0748 Z"/>
</g>
<g style="fill:rgb(255,255,255); fill-opacity:1.0; stroke-linejoin: miter">
<path d="M408.338,1334.291C407.55914,1331.443,407.17987,1328.504,407.20978,1325.5247C407.39075,1307.9066,421.87012,1293.7211,439.48798,1293.9011C446.81747,1293.9747,453.95145,1296.5933,459.57535,1301.2731C464.57706,1305.4342,468.2064,1311.0585,469.9415,1317.2765C481.7421,1316.2953,492.32462,1323.885,495.54318,1334.8378C497.3323,1334.4493,499.1581,1334.2626,500.9971,1334.2821C514.5558,1334.4208,525.4746,1345.4855,525.33655,1359.0438C525.1975,1372.6039,514.0548,1383.4415,500.4954,1383.3032L414.64594,1382.4259C401.0868,1382.2874,390.16852,1371.2219,390.3069,1357.6627C390.42053,1346.57,397.85974,1337.1654,408.338,1334.291 Z"/>
</g>
</g>
</svg>