<?xml version="1.0" encoding="UTF-8"?>
<svg viewBox="0 0 640 480" xmlns="http://www.w3.org/2000/svg" xmlns:xlink="http://www.w3.org/1999/xlink">
 <defs>
  <filter id="f">
   <feGaussianBlur stdDeviation="1.0695"/>
  </filter>
  <filter id="e">
   <feGaussianBlur stdDeviation=".7917"/>
  </filter>
  <filter id="t">
   <feGaussianBlur stdDeviation="7.0361"/>
  </filter>
  <filter id="d" x="-.03087" y="-.10779" width="1.0618" height="1.2156">
   <feGaussianBlur stdDeviation=".5841"/>
  </filter>
  <linearGradient id="b">
   <stop stop-color="#ccc" offset="0"/>
   <stop stop-color="#ccc" stop-opacity="0" offset="1"/>
  </linearGradient>
  <linearGradient id="c">
   <stop offset="0"/>
   <stop stop-opacity="0" offset="1"/>
  </linearGradient>
  <linearGradient id="l">
   <stop stop-color="#502d16" offset="0"/>
   <stop stop-color="#502d16" stop-opacity="0" offset="1"/>
  </linearGradient>
  <linearGradient id="s" x1="43.887" x2="411.76" y1="331.56" y2="326.4" gradientUnits="userSpaceOnUse">
   <stop stop-color="#520" offset="0"/>
   <stop stop-color="#520" stop-opacity="0" offset="1"/>
  </linearGradient>
  <linearGradient id="r" x1="26.469" x2="103.14" gradientUnits="userSpaceOnUse" xlink:href="#b"/>
  <linearGradient id="q" x1="112.3" x2="566.77" gradientUnits="userSpaceOnUse" xlink:href="#l"/>
  <linearGradient id="p" x1="131.98" x2="290.1" y1="-20.823" y2="97.929" gradientTransform="matrix(.32903 0 0 .38128 133.45 54.683)" gradientUnits="userSpaceOnUse" xlink:href="#b"/>
  <linearGradient id="o" x1="131.98" x2="290.1" y1="-20.823" y2="97.929" gradientTransform="matrix(.32903 0 0 .60225 121.55 34.788)" gradientUnits="userSpaceOnUse" xlink:href="#b"/>
  <linearGradient id="n" x1="131.98" x2="290.1" y1="-20.823" y2="97.929" gradientUnits="userSpaceOnUse" xlink:href="#b"/>
  <radialGradient id="j" cx="1602.5" cy="145.83" r="19.395" gradientTransform="matrix(.74118 0 0 .75234 414.54 35.538)" gradientUnits="userSpaceOnUse">
   <stop stop-color="#ececec" offset="0"/>
   <stop stop-color="#ececec" stop-opacity="0" offset="1"/>
  </radialGradient>
  <radialGradient id="i" cx="1601.1" cy="122.78" r="23.09" gradientTransform="matrix(1 0 0 .28354 -2.0536 71.542)" gradientUnits="userSpaceOnUse">
   <stop stop-color="#fff" offset="0"/>
   <stop stop-color="#fff" stop-opacity="0" offset="1"/>
  </radialGradient>
  <radialGradient id="a" cx="1598.4" cy="71.771" r="22.59" gradientTransform="matrix(.0101 .62626 -.26764 .00432 1601.5 -903.76)" gradientUnits="userSpaceOnUse" xlink:href="#c"/>
  <radialGradient id="k" cx="610.54" cy="338.18" r="220.74" gradientTransform="matrix(-.90051 .01754 -.01415 -.72651 1165.1 557.51)" gradientUnits="userSpaceOnUse" xlink:href="#c"/>
  <radialGradient id="m" cx="317.9" cy="93.965" r="231.55" gradientTransform="matrix(1 0 0 .06096 0 88.236)" gradientUnits="userSpaceOnUse" xlink:href="#l"/>
  <radialGradient id="h" cx="463.44" cy="-15.424" r="71.42" gradientTransform="matrix(.31629 -.6901 .41823 .19169 367.57 241.46)" gradientUnits="userSpaceOnUse" xlink:href="#c"/>
  <radialGradient id="g" cx="469.8" cy="-128.25" r="71.42" gradientTransform="matrix(.31629 -.6901 .41823 .19169 367.57 241.46)" gradientUnits="userSpaceOnUse" xlink:href="#c"/>
 </defs>
 <g filter="url(#t)">
  <path d="m73.018 89.356c5.9322-16.421 311.54-4.8678 467.31-7.3018 47.955 37.048 33.81 96.974 39.247 149.69-2.2129 7.9102-6.4215 12.594-16.429 23.731l2.7382 140.56c-1.1157 13.975-15.468 22.655-28.294 31.945l-397.95 24.643c-20.956-3.422-23.69-14.133-33.771-21.905-23.254 2.0007-33.067-13.919-41.985-31.032l-1.8254-289.33z"/>
  <path d="m95.518 97.284c-9.2938 0.55906-18.356 1.5813-22.589 12.262l-1.9362 289.78c10.054 13.994 20.961 27.028 44.532 25.816l-4.5177-327.86z"/>
  <path d="m104.55 120.52 2.5816 294.3c1.9453 21.848 11.548 37.84 42.596 37.433l384.65-23.234c18.761-10.338 31.728-21.729 31.624-35.496l-7.0993-272.35z"/>
  <path d="m114.86 120.5 2.4699 284.6c1.8612 21.128 11.048 36.593 40.752 36.199l368.01-22.468c17.949-9.997 30.355-21.013 30.256-34.327l-6.7921-263.38z" stroke="url(#k)" stroke-width=".1"/>
  <path d="m95.518 97.284c-9.2938 0.55906-18.356 1.5813-22.589 12.262l-1.9362 289.78c10.054 13.994 20.961 27.028 44.532 25.816l-4.5177-327.86z"/>
  <path d="m63.248 114.71c11.193-18.478 40.014-29.864 37.433 0.64539l6.4539 109.72c2.3171 34.165 18.726 42.965 38.078 46.468l407.89-14.199c12.833-7.3572 24.22-15.541 25.17-29.688 0.72618-39.392-0.4304-78.246-11.617-114.23-2.4739-11.635-14.5-21.678-27.106-31.624-154.46 1.2908-308.93-7.0446-463.39 3.8723-5.8673 8.742-15.01 15.519-12.908 29.043z"/>
  <path d="m112.3 112.13h442.09c13.097 36.572 12.585 73.144 12.262 109.72-4.0138 12.131-7.7375 24.396-33.56 26.461l-375.62 12.908c-27.101 1.7153-34.291-18.012-39.369-40.014z"/>
  <path d="m249.94 79.969c-54.525 0.19017-109.3-1.754-163.59 5 19.492 6.1242 25.708 13.444 25.707 23.113l435.57-3.2064c5.8172-4.2822-3.2671-13.545-13.156-23.062-94.851 0.66548-189.68-2.1746-284.53-1.8438z"/>
  <g transform="translate(-1364.2 155.98)">
   <g transform="translate(3.1945 9.8117)">
    <path d="m1568.5 72.927 8.6709 20.993 38.79-1.3691 7.3018-20.08c-15.959-11.899-33.94-13.184-54.763 0.45636z" filter="url(#f)"/>
    <g transform="translate(-.45636,-.45636)">
     <path d="m1570.6 72.014 8.6709 20.993 38.79-1.3691 7.3018-20.08c-15.959-11.899-33.94-13.184-54.763 0.45636z"/>
    </g>
   </g>
   <g transform="translate(-2.7382 -16.201)">
    <g filter="url(#e)">
     <path d="m1583.1 126.09 1.369 28.751c10.702 10.809 21.756 18.688 36.052-0.45636l1.369-28.751z"/>
     <path d="m1587.9 130.99 1.0147 20.78c7.9321 7.8122 16.125 13.507 26.721-0.32984l1.0147-20.78z"/>
    </g>
    <g transform="translate(1.1409,-.91272)">
     <path d="m1583.1 126.09 1.369 28.751c10.702 10.809 21.756 18.688 36.052-0.45636l1.369-28.751z"/>
     <path d="m1587.9 130.99 1.0147 20.78c7.9321 7.8122 16.125 13.507 26.721-0.32984l1.0147-20.78z"/>
    </g>
   </g>
   <g filter="url(#d)">
    <path d="m1576.7 99.852 45.18-0.45636-0.4564 11.865-44.267 0.22818z"/>
    <path d="m1576.5 100.77 45.18-0.45636-0.4564 11.865-44.267 0.22818z" stroke="url(#a)"/>
   </g>
   <g transform="translate(1.1409,-.68454)">
    <path d="m1576.7 99.852 45.18-0.45636-0.4564 11.865-44.267 0.22818z"/>
    <path d="m1576.5 100.77 45.18-0.45636-0.4564 11.865-44.267 0.22818z" stroke="url(#a)"/>
   </g>
  </g>
  <g transform="translate(-1164.1 149.53)">
   <g transform="translate(3.1945 9.8117)">
    <path d="m1568.5 72.927 8.6709 20.993 38.79-1.3691 7.3018-20.08c-15.959-11.899-33.94-13.184-54.763 0.45636z" filter="url(#f)"/>
    <g transform="translate(-.45636,-.45636)">
     <path d="m1570.6 72.014 8.6709 20.993 38.79-1.3691 7.3018-20.08c-15.959-11.899-33.94-13.184-54.763 0.45636z"/>
    </g>
   </g>
   <g transform="translate(-2.7382 -16.201)">
    <g filter="url(#e)">
     <path d="m1583.1 126.09 1.369 28.751c10.702 10.809 21.756 18.688 36.052-0.45636l1.369-28.751z"/>
     <path d="m1587.9 130.99 1.0147 20.78c7.9321 7.8122 16.125 13.507 26.721-0.32984l1.0147-20.78z"/>
    </g>
    <g transform="translate(1.1409,-.91272)">
     <path d="m1583.1 126.09 1.369 28.751c10.702 10.809 21.756 18.688 36.052-0.45636l1.369-28.751z"/>
     <path d="m1587.9 130.99 1.0147 20.78c7.9321 7.8122 16.125 13.507 26.721-0.32984l1.0147-20.78z"/>
    </g>
   </g>
   <g filter="url(#d)">
    <path d="m1576.7 99.852 45.18-0.45636-0.4564 11.865-44.267 0.22818z"/>
    <path d="m1576.5 100.77 45.18-0.45636-0.4564 11.865-44.267 0.22818z" stroke="url(#a)"/>
   </g>
   <g transform="translate(1.1409,-.68454)">
    <path d="m1576.7 99.852 45.18-0.45636-0.4564 11.865-44.267 0.22818z"/>
    <path d="m1576.5 100.77 45.18-0.45636-0.4564 11.865-44.267 0.22818z" stroke="url(#a)"/>
   </g>
  </g>
  <g transform="translate(-129.61 184.37)">
   <path transform="matrix(1.4878 0 0 1 -383.88 -20.08)" d="m637.53-74.021c0 2.0163-1.7367 3.6509-3.879 3.6509s-3.8791-1.6346-3.8791-3.6509 1.7367-3.6509 3.8791-3.6509 3.879 1.6346 3.879 3.6509z"/>
   <path transform="matrix(1.4878 0 0 1 -367.58 -20.536)" d="m637.53-74.021c0 2.0163-1.7367 3.6509-3.879 3.6509s-3.8791-1.6346-3.8791-3.6509 1.7367-3.6509 3.8791-3.6509 3.879 1.6346 3.879 3.6509z"/>
   <path d="m585.51-87.255-53.394 0.91272c-5.7806-0.46653-12.667-3.4545-13.399-9.9179l-3.0298-22.94c-19.455-10.787-42.166-12.696-63.891-14.831-2.5096-1.1036-8.6583 1.2616-8.2636-2.5712l-0.40676-15.456c24.483 3.1764 49.314 6.5239 72.474 15.478 6.9468 2.9814 14.422 6.3618 19.283 12.217l2.2538 25.243c3.0093 1.6228 5.9054 3.6575 8.9852 5.0235l39.845 0.45279-0.4564 6.389z"/>
   <path d="m585.51-87.255-53.394 0.91272c-5.7806-0.46653-12.667-3.4545-13.399-9.9179l-3.0298-22.94c-19.455-10.787-42.166-12.696-63.891-14.831-2.5096-1.1036-8.6583 1.2616-8.2636-2.5712l-0.40676-15.456c24.483 3.1764 49.314 6.5239 72.474 15.478 6.9468 2.9814 14.422 6.3618 19.283 12.217l2.2538 25.243c3.0093 1.6228 5.9054 3.6575 8.9852 5.0235l39.845 0.45279-0.4564 6.389z"/>
   <path d="m585.51-87.255-53.394 0.91272c-5.7806-0.46653-12.667-3.4545-13.399-9.9179l-3.0298-22.94c-19.455-10.787-42.166-12.696-63.891-14.831-2.5096-1.1036-8.6583 1.2616-8.2636-2.5712l-0.40676-15.456c24.483 3.1764 49.314 6.5239 72.474 15.478 6.9468 2.9814 14.422 6.3618 19.283 12.217l2.2538 25.243c3.0093 1.6228 5.9054 3.6575 8.9852 5.0235l39.845 0.45279-0.4564 6.389z"/>
   <g transform="matrix(-1 0 0 1 888.99 0)">
    <path transform="matrix(1.4878 0 0 1 -383.88 -20.08)" d="m637.53-74.021c0 2.0163-1.7367 3.6509-3.879 3.6509s-3.8791-1.6346-3.8791-3.6509 1.7367-3.6509 3.8791-3.6509 3.879 1.6346 3.879 3.6509z"/>
    <path transform="matrix(1.4878 0 0 1 -367.58 -20.536)" d="m637.53-74.021c0 2.0163-1.7367 3.6509-3.879 3.6509s-3.8791-1.6346-3.8791-3.6509 1.7367-3.6509 3.8791-3.6509 3.879 1.6346 3.879 3.6509z"/>
    <path d="m585.51-87.255-53.394 0.91272c-5.7806-0.46653-12.667-3.4545-13.399-9.9179l-3.0298-22.94c-19.455-10.787-42.166-12.696-63.891-14.831-2.5096-1.1036-8.6583 1.2616-8.2636-2.5712l-0.40676-15.456c24.483 3.1764 49.314 6.5239 72.474 15.478 6.9468 2.9814 14.422 6.3618 19.283 12.217l2.2538 25.243c3.0093 1.6228 5.9054 3.6575 8.9852 5.0235l39.845 0.45279-0.4564 6.389z"/>
    <path d="m585.51-87.255-53.394 0.91272c-5.7806-0.46653-12.667-3.4545-13.399-9.9179l-3.0298-22.94c-19.455-10.787-42.166-12.696-63.891-14.831-2.5096-1.1036-8.6583 1.2616-8.2636-2.5712l-0.40676-15.456c24.483 3.1764 49.314 6.5239 72.474 15.478 6.9468 2.9814 14.422 6.3618 19.283 12.217l2.2538 25.243c3.0093 1.6228 5.9054 3.6575 8.9852 5.0235l39.845 0.45279-0.4564 6.389z"/>
    <path d="m585.51-87.255-53.394 0.91272c-5.7806-0.46653-12.667-3.4545-13.399-9.9179l-3.0298-22.94c-19.455-10.787-42.166-12.696-63.891-14.831-2.5096-1.1036-8.6583 1.2616-8.2636-2.5712l-0.40676-15.456c24.483 3.1764 49.314 6.5239 72.474 15.478 6.9468 2.9814 14.422 6.3618 19.283 12.217l2.2538 25.243c3.0093 1.6228 5.9054 3.6575 8.9852 5.0235l39.845 0.45279-0.4564 6.389z"/>
   </g>
  </g>
  <path d="m197.31 88.978c0 0.76879 0.85018 1.392 1.8989 1.392s1.8989-0.62323 1.8989-1.392-0.85019-1.392-1.8989-1.392-1.8989 0.62323-1.8989 1.392z"/>
  <path d="m180.05 88.683c0 1.2143 0.85018 2.1988 1.8989 2.1988s1.8989-0.98442 1.8989-2.1988-0.85018-2.1988-1.8989-2.1988-1.8989 0.98441-1.8989 2.1988z"/>
  <path d="m315.61 31.982c-24.483 3.1764-49.309 6.5152-72.469 15.469-6.9468 2.9814-14.421 6.3633-19.281 12.219l-2.25 25.25c-3.0093 1.6228-5.9202 3.6652-9 5.0312l-11.688 0.125c1.5091 0.21491 2.8627 1.2697 4 3.3438l12.562-0.34375 11.625-8.0625 1.2812-24.188c33.632-14.609 60.491-19.321 85-20.625 47.17 0.35894 14.648-4.5251 0.21875-8.2188zm-116.06 58.125-14.375 0.15625c1.4552 0.62669 2.852 1.9002 4.25 3.1562l4.8438-0.34375c1.8966-1.6712 3.6659-2.7041 5.2812-2.9688zm-17.875 0.1875-8.9062 0.09375 0.21875 3.1875 5.4688-0.15625c1.1269-1.653 2.1966-2.6243 3.2188-3.125z"/>
 </g>
 <g transform="translate(-3.6509 -5.4763)">
  <path d="m73.018 89.356c5.9322-16.421 311.54-4.8678 467.31-7.3018 47.955 37.048 33.81 96.974 39.247 149.69-2.2129 7.9102-6.4215 12.594-16.429 23.731l2.7382 140.56c-1.1157 13.975-15.468 22.655-28.294 31.945l-397.95 24.643c-20.956-3.422-23.69-14.133-33.771-21.905-23.254 2.0007-33.067-13.919-41.985-31.032l-1.8254-289.33z" fill="#2b1100"/>
  <path d="m95.518 97.284c-9.2938 0.55906-18.356 1.5813-22.589 12.262l-1.9362 289.78c10.054 13.994 20.961 27.028 44.532 25.816l-4.5177-327.86z" fill="#520"/>
  <path d="m104.55 120.52 2.5816 294.3c1.9453 21.848 11.548 37.84 42.596 37.433l384.65-23.234c18.761-10.338 31.728-21.729 31.624-35.496l-7.0993-272.35z" fill="#2b1100"/>
  <path d="m114.86 120.5 2.4699 284.6c1.8612 21.128 11.048 36.593 40.752 36.199l368.01-22.468c17.949-9.997 30.355-21.013 30.256-34.327l-6.7921-263.38z" fill="url(#s)" stroke="url(#k)" stroke-width=".1"/>
  <path d="m95.518 97.284c-9.2938 0.55906-18.356 1.5813-22.589 12.262l-1.9362 289.78c10.054 13.994 20.961 27.028 44.532 25.816l-4.5177-327.86z" fill="url(#r)"/>
  <path d="m63.248 114.71c11.193-18.478 40.014-29.864 37.433 0.64539l6.4539 109.72c2.3171 34.165 18.726 42.965 38.078 46.468l407.89-14.199c12.833-7.3572 24.22-15.541 25.17-29.688 0.72618-39.392-0.4304-78.246-11.617-114.23-2.4739-11.635-14.5-21.678-27.106-31.624-154.46 1.2908-308.93-7.0446-463.39 3.8723-5.8673 8.742-15.01 15.519-12.908 29.043z" fill="#2b1100"/>
  <path d="m112.3 112.13h442.09c13.097 36.572 12.585 73.144 12.262 109.72-4.0138 12.131-7.7375 24.396-33.56 26.461l-375.62 12.908c-27.101 1.7153-34.291-18.012-39.369-40.014z" fill="url(#q)"/>
  <path d="m249.94 79.969c-54.525 0.19017-109.3-1.754-163.59 5 19.492 6.1242 25.708 13.444 25.707 23.113l435.57-3.2064c5.8172-4.2822-3.2671-13.545-13.156-23.062-94.851 0.66548-189.68-2.1746-284.53-1.8438z" fill="url(#m)"/>
  <g transform="translate(-1364.2 155.98)">
   <g transform="translate(3.1945 9.8117)">
    <path d="m1568.5 72.927 8.6709 20.993 38.79-1.3691 7.3018-20.08c-15.959-11.899-33.94-13.184-54.763 0.45636z" filter="url(#f)"/>
    <g transform="translate(-.45636,-.45636)">
     <path d="m1570.6 72.014 8.6709 20.993 38.79-1.3691 7.3018-20.08c-15.959-11.899-33.94-13.184-54.763 0.45636z" fill="#28170b"/>
    </g>
   </g>
   <g transform="translate(-2.7382 -16.201)">
    <g filter="url(#e)">
     <path d="m1583.1 126.09 1.369 28.751c10.702 10.809 21.756 18.688 36.052-0.45636l1.369-28.751z"/>
     <path d="m1587.9 130.99 1.0147 20.78c7.9321 7.8122 16.125 13.507 26.721-0.32984l1.0147-20.78z"/>
    </g>
    <g transform="translate(1.1409,-.91272)">
     <path d="m1583.1 126.09 1.369 28.751c10.702 10.809 21.756 18.688 36.052-0.45636l1.369-28.751z" fill="#999"/>
     <path d="m1587.9 130.99 1.0147 20.78c7.9321 7.8122 16.125 13.507 26.721-0.32984l1.0147-20.78z" fill="url(#j)"/>
    </g>
   </g>
   <g filter="url(#d)">
    <path d="m1576.7 99.852 45.18-0.45636-0.4564 11.865-44.267 0.22818z"/>
    <path d="m1576.5 100.77 45.18-0.45636-0.4564 11.865-44.267 0.22818z" stroke="url(#a)"/>
   </g>
   <g transform="translate(1.1409,-.68454)">
    <path d="m1576.7 99.852 45.18-0.45636-0.4564 11.865-44.267 0.22818z" fill="#4d4d4d"/>
    <path d="m1576.5 100.77 45.18-0.45636-0.4564 11.865-44.267 0.22818z" fill="url(#i)" stroke="url(#a)"/>
   </g>
  </g>
  <g transform="translate(-1164.1 149.53)">
   <g transform="translate(3.1945 9.8117)">
    <path d="m1568.5 72.927 8.6709 20.993 38.79-1.3691 7.3018-20.08c-15.959-11.899-33.94-13.184-54.763 0.45636z" filter="url(#f)"/>
    <g transform="translate(-.45636,-.45636)">
     <path d="m1570.6 72.014 8.6709 20.993 38.79-1.3691 7.3018-20.08c-15.959-11.899-33.94-13.184-54.763 0.45636z" fill="#28170b"/>
    </g>
   </g>
   <g transform="translate(-2.7382 -16.201)">
    <g filter="url(#e)">
     <path d="m1583.1 126.09 1.369 28.751c10.702 10.809 21.756 18.688 36.052-0.45636l1.369-28.751z"/>
     <path d="m1587.9 130.99 1.0147 20.78c7.9321 7.8122 16.125 13.507 26.721-0.32984l1.0147-20.78z"/>
    </g>
    <g transform="translate(1.1409,-.91272)">
     <path d="m1583.1 126.09 1.369 28.751c10.702 10.809 21.756 18.688 36.052-0.45636l1.369-28.751z" fill="#999"/>
     <path d="m1587.9 130.99 1.0147 20.78c7.9321 7.8122 16.125 13.507 26.721-0.32984l1.0147-20.78z" fill="url(#j)"/>
    </g>
   </g>
   <g filter="url(#d)">
    <path d="m1576.7 99.852 45.18-0.45636-0.4564 11.865-44.267 0.22818z"/>
    <path d="m1576.5 100.77 45.18-0.45636-0.4564 11.865-44.267 0.22818z" stroke="url(#a)"/>
   </g>
   <g transform="translate(1.1409,-.68454)">
    <path d="m1576.7 99.852 45.18-0.45636-0.4564 11.865-44.267 0.22818z" fill="#4d4d4d"/>
    <path d="m1576.5 100.77 45.18-0.45636-0.4564 11.865-44.267 0.22818z" fill="url(#i)" stroke="url(#a)"/>
   </g>
  </g>
  <g transform="translate(-129.61 184.37)">
   <path transform="matrix(1.4878 0 0 1 -383.88 -20.08)" d="m637.53-74.021c0 2.0163-1.7367 3.6509-3.879 3.6509s-3.8791-1.6346-3.8791-3.6509 1.7367-3.6509 3.8791-3.6509 3.879 1.6346 3.879 3.6509z"/>
   <path transform="matrix(1.4878 0 0 1 -367.58 -20.536)" d="m637.53-74.021c0 2.0163-1.7367 3.6509-3.879 3.6509s-3.8791-1.6346-3.8791-3.6509 1.7367-3.6509 3.8791-3.6509 3.879 1.6346 3.879 3.6509z"/>
   <path d="m585.51-87.255-53.394 0.91272c-5.7806-0.46653-12.667-3.4545-13.399-9.9179l-3.0298-22.94c-19.455-10.787-42.166-12.696-63.891-14.831-2.5096-1.1036-8.6583 1.2616-8.2636-2.5712l-0.40676-15.456c24.483 3.1764 49.314 6.5239 72.474 15.478 6.9468 2.9814 14.422 6.3618 19.283 12.217l2.2538 25.243c3.0093 1.6228 5.9054 3.6575 8.9852 5.0235l39.845 0.45279-0.4564 6.389z" fill="#2b1100"/>
   <path d="m585.51-87.255-53.394 0.91272c-5.7806-0.46653-12.667-3.4545-13.399-9.9179l-3.0298-22.94c-19.455-10.787-42.166-12.696-63.891-14.831-2.5096-1.1036-8.6583 1.2616-8.2636-2.5712l-0.40676-15.456c24.483 3.1764 49.314 6.5239 72.474 15.478 6.9468 2.9814 14.422 6.3618 19.283 12.217l2.2538 25.243c3.0093 1.6228 5.9054 3.6575 8.9852 5.0235l39.845 0.45279-0.4564 6.389z" fill="url(#h)"/>
   <path d="m585.51-87.255-53.394 0.91272c-5.7806-0.46653-12.667-3.4545-13.399-9.9179l-3.0298-22.94c-19.455-10.787-42.166-12.696-63.891-14.831-2.5096-1.1036-8.6583 1.2616-8.2636-2.5712l-0.40676-15.456c24.483 3.1764 49.314 6.5239 72.474 15.478 6.9468 2.9814 14.422 6.3618 19.283 12.217l2.2538 25.243c3.0093 1.6228 5.9054 3.6575 8.9852 5.0235l39.845 0.45279-0.4564 6.389z" fill="url(#g)"/>
   <g transform="matrix(-1 0 0 1 888.99 0)">
    <path transform="matrix(1.4878 0 0 1 -383.88 -20.08)" d="m637.53-74.021c0 2.0163-1.7367 3.6509-3.879 3.6509s-3.8791-1.6346-3.8791-3.6509 1.7367-3.6509 3.8791-3.6509 3.879 1.6346 3.879 3.6509z"/>
    <path transform="matrix(1.4878 0 0 1 -367.58 -20.536)" d="m637.53-74.021c0 2.0163-1.7367 3.6509-3.879 3.6509s-3.8791-1.6346-3.8791-3.6509 1.7367-3.6509 3.8791-3.6509 3.879 1.6346 3.879 3.6509z"/>
    <path d="m585.51-87.255-53.394 0.91272c-5.7806-0.46653-12.667-3.4545-13.399-9.9179l-3.0298-22.94c-19.455-10.787-42.166-12.696-63.891-14.831-2.5096-1.1036-8.6583 1.2616-8.2636-2.5712l-0.40676-15.456c24.483 3.1764 49.314 6.5239 72.474 15.478 6.9468 2.9814 14.422 6.3618 19.283 12.217l2.2538 25.243c3.0093 1.6228 5.9054 3.6575 8.9852 5.0235l39.845 0.45279-0.4564 6.389z" fill="#2b1100"/>
    <path d="m585.51-87.255-53.394 0.91272c-5.7806-0.46653-12.667-3.4545-13.399-9.9179l-3.0298-22.94c-19.455-10.787-42.166-12.696-63.891-14.831-2.5096-1.1036-8.6583 1.2616-8.2636-2.5712l-0.40676-15.456c24.483 3.1764 49.314 6.5239 72.474 15.478 6.9468 2.9814 14.422 6.3618 19.283 12.217l2.2538 25.243c3.0093 1.6228 5.9054 3.6575 8.9852 5.0235l39.845 0.45279-0.4564 6.389z" fill="url(#h)"/>
    <path d="m585.51-87.255-53.394 0.91272c-5.7806-0.46653-12.667-3.4545-13.399-9.9179l-3.0298-22.94c-19.455-10.787-42.166-12.696-63.891-14.831-2.5096-1.1036-8.6583 1.2616-8.2636-2.5712l-0.40676-15.456c24.483 3.1764 49.314 6.5239 72.474 15.478 6.9468 2.9814 14.422 6.3618 19.283 12.217l2.2538 25.243c3.0093 1.6228 5.9054 3.6575 8.9852 5.0235l39.845 0.45279-0.4564 6.389z" fill="url(#g)"/>
   </g>
  </g>
  <path d="m197.31 88.978c0 0.76879 0.85018 1.392 1.8989 1.392s1.8989-0.62323 1.8989-1.392-0.85019-1.392-1.8989-1.392-1.8989 0.62323-1.8989 1.392z" fill="url(#p)"/>
  <path d="m180.05 88.683c0 1.2143 0.85018 2.1988 1.8989 2.1988s1.8989-0.98442 1.8989-2.1988-0.85018-2.1988-1.8989-2.1988-1.8989 0.98441-1.8989 2.1988z" fill="url(#o)"/>
  <path d="m315.61 31.982c-24.483 3.1764-49.309 6.5152-72.469 15.469-6.9468 2.9814-14.421 6.3633-19.281 12.219l-2.25 25.25c-3.0093 1.6228-5.9202 3.6652-9 5.0312l-11.688 0.125c1.5091 0.21491 2.8627 1.2697 4 3.3438l12.562-0.34375 11.625-8.0625 1.2812-24.188c33.632-14.609 60.491-19.321 85-20.625 47.17 0.35894 14.648-4.5251 0.21875-8.2188zm-116.06 58.125-14.375 0.15625c1.4552 0.62669 2.852 1.9002 4.25 3.1562l4.8438-0.34375c1.8966-1.6712 3.6659-2.7041 5.2812-2.9688zm-17.875 0.1875-8.9062 0.09375 0.21875 3.1875 5.4688-0.15625c1.1269-1.653 2.1966-2.6243 3.2188-3.125z" fill="url(#n)"/>
 </g>
</svg>
