<?xml version="1.0" encoding="UTF-8"?>
<svg width="117.46mm" height="179.33mm" version="1.1" viewBox="0 0 416.18482 635.43305" xmlns="http://www.w3.org/2000/svg">
 <defs>
  <radialGradient id="k" cx="-325.75" cy="466.57" r="1.6703" gradientTransform="matrix(16.729 -.005 -.005 -16.729 5488.5 7876.9)" gradientUnits="userSpaceOnUse">
   <stop stop-color="#B9DAF4" offset="0"/>
   <stop stop-color="#7A97CB" offset="1"/>
  </radialGradient>
  <linearGradient id="g" x1="-270.08" x2="-268.41" y1="460.09" y2="460.09" gradientTransform="matrix(100.55,113.72,113.72,-100.55,-25192,76932)" gradientUnits="userSpaceOnUse">
   <stop stop-color="#FFD8BF" offset="0"/>
   <stop stop-color="#BF7400" offset=".5393"/>
   <stop offset="1"/>
  </linearGradient>
  <linearGradient id="h" x1="-268.27" x2="-266.57" y1="455.77" y2="455.77" gradientTransform="matrix(25.13,103.51,103.51,-25.13,-40422,39142)" gradientUnits="userSpaceOnUse">
   <stop stop-color="#FFD8BF" offset="0"/>
   <stop stop-color="#BF7400" offset=".5393"/>
   <stop offset="1"/>
  </linearGradient>
  <linearGradient id="i" x1="-270.09" x2="-268.4" y1="460.1" y2="460.1" gradientTransform="matrix(100.55,113.72,113.72,-100.55,-25192,76932)" gradientUnits="userSpaceOnUse">
   <stop stop-color="#F3C192" offset="0"/>
   <stop stop-color="#D49035" offset=".5393"/>
   <stop stop-color="#765735" offset="1"/>
  </linearGradient>
  <linearGradient id="j" x1="-268.26" x2="-266.58" y1="455.77" y2="455.77" gradientTransform="matrix(25.13,103.51,103.51,-25.13,-40422,39142)" gradientUnits="userSpaceOnUse">
   <stop stop-color="#F3C192" offset="0"/>
   <stop stop-color="#D49035" offset=".5393"/>
   <stop stop-color="#765735" offset="1"/>
  </linearGradient>
  <radialGradient id="l" cx="-296.49" cy="466.06" r="1.685" gradientTransform="matrix(32.319,0,0,-32.319,9620.6,15112)" gradientUnits="userSpaceOnUse">
   <stop stop-color="#FFFA5F" offset="0"/>
   <stop stop-color="#9F3300" offset="1"/>
  </radialGradient>
 </defs>
 <g transform="translate(184.25 202.79)">
  <g transform="matrix(4.1614 0 0 4.1614 -127.36 -185.07)">
   <path d="m81.112 104.35c0 22.97-22.022 31.07-41.758 30.56-21.918-0.56-41.092-11.95-38.2-36.133 2.489-20.824 18.881-44.701 42.179-43.32 23.758 1.407 37.779 27.432 37.779 48.893" fill="#333"/>
   <path d="m41.482 56.278c-22.668 0-37.951 23.9-39.639 44.332-1.95 23.64 18.663 33.43 39.471 33.43-18.877 0-39.17-8.46-38.221-30.27 0.909-20.892 17.266-37.366 38.374-37.366 20.104 0 35.56 14.75 37.217 34.666 1.901 22.88-16.798 32.97-37.339 32.97 20.093 0 39.72-9.34 38.831-32.01-0.818-20.898-15.363-45.752-38.694-45.752"/>
   <path d="m12.218 70.282c-12.674 15.872-19.631 44.858 0.201 58.088 16.13 10.76 45.612 10.98 60.429-2.43 15.634-14.15 9.061-41.158-2.367-55.806-15.706-20.128-42.391-19.683-58.263 0.148m-10.685 34.778c0-22.32 16.523-50.331 41.712-48.867 22.688 1.318 36.308 25.442 37.084 45.987 0.823 21.82-17.098 31.45-36.808 31.97-18.83 0.49-41.988-6.56-41.988-29.09"/>
   <path d="m41.418 123.23c-13.387 0-29.547-2.01-39.309-12.25 3.43 17.07 21.658 22.75 36.991 23.17 16.438 0.45 36.641-4.41 40.572-22.94-9.476 10.07-25.179 12.02-38.254 12.02"/>
   <path d="m41.482 55.841c21.281 0 35.308 21.513 37.542 40.673 2.584 22.156-12.88 34.196-33.755 35.336-18.738 1.01-42.75-5.85-42.75-28.48 0-20.729 14.254-45.895 36.962-47.47-22.745 1.539-37.371 26.176-38.208 46.98-0.954 23.68 21.856 32.11 42.054 31.59 20.956-0.54 38.928-11.42 37.188-34.37-1.558-20.531-16.191-44.259-39.033-44.259"/>
   <path d="m57.242 59.462c-10.053-7.071-23.142-5.917-33.401 0.395 2.919 4.551 6.257 8.847 10.004 12.748 2.182 2.269 6.107 7.137 9.39 7.791 7.419 1.483 13.308-16.05 14.007-20.934" fill="#f4f4f4"/>
   <path d="m26.949 63.083c0.338 2.302 1.538 2.453 3.002 1.286-1.022-0.378-2.022-0.806-3.002-1.286m29.603-0.322c-0.62 0.296-1.239 0.592-1.859 0.888 0.443 0.283 0.888 0.569 1.332 0.855 0.174-0.582 0.351-1.161 0.527-1.743m-31.073-0.444c0.365 0.53 0.622 0.342 0 0" fill="url(#k)"/>
   <path d="m33.73 74.689c0-2.667 19.451 0.125 21.361 0.539 2.826 0.618 4.326 0.971 3.703 4.046-0.863 4.262-2.514 8.442-4.229 12.421-1.072 2.486-2.679 7.614-5.361 8.915-1.754 0.85-4.552-4.481-5.178-5.478-2.52-4.006-4.752-8.202-6.856-12.438-1.057-2.131-3.44-5.518-3.44-8.005" fill="#fff"/>
   <path d="m50.306 80.083c1.025 2.654 4.164 8.347 3.134 11.172-1.019 2.792-3.354 11.485-6.845 7.531-4.051-4.591-4.409-7.113-2.89-12.747 1.473-5.453 1.021-5.538 6.601-5.956"/>
   <path d="m50.231 79.109c-5.378 0.408-5.572-0.197-6.993 4.937-1.854 6.69-2.21 10.018 2.751 15.526 4.294 4.778 7.005-4.37 8.248-7.665 0.947-2.513-1.686-12.225-4.006-12.798m-0.58 2c2.556 6.686 4.179 12.175-1.239 18.091-2.041-1.473-5.481-5.659-4.911-8.353 0.456-2.147 1.063-4.266 1.648-6.381 0.926-3.347 1.171-3.107 4.502-3.357" fill="#4d4d4d"/>
   <path d="m42.163 76.226c0.972-0.757 3.157-3.26 4.333-3.371 0.666-0.063 4.449 1.736 4.519 2.338 0.805 6.936-6.652 6.39-8.852 1.033"/>
   <path d="m45.896 72.081c-0.843 0.658-5.12 3.253-4.773 4.154 1.115 2.9 3.563 5.877 7.026 5.354 7.033-1.066 3.919-10.754-2.253-9.508m0.732 1.908c1.149 0.525 2.297 1.055 3.447 1.578 0.111 1.628-0.157 3.786-2.219 4.088-1.651 0.254-2.975-0.854-3.853-2.102-1.198-1.702 1.29-2.519 2.625-3.564" fill="#333"/>
   <path d="m53.317 64.211c-3.777 1.454-7.819 2.194-11.866 2.194-4.659 0-8.498-2.01-12.785-0.148 2.869 5.048 5.976 9.966 9.083 14.869 1.629-1.888 6.117-7.502 8.946-7.766 2.743-0.256 8.024 4.145 9.965 5.621 0.758-2.927 1.33-5.9 1.716-8.896 0.468-3.641-2.208-4.042-5.059-5.874" fill="#fff"/>
   <path d="m45.104 57.795c-7.28 3.157-14.559 6.314-21.838 9.472 4.505 5.992 8.49 12.169 12.502 18.506 2.708-4.196 8.405-12.517 13.745-9.804 1.9 0.964 9.105 7.367 10.564 6.923 2.576-0.793 3.386-7.814 3.84-9.926 1.025-4.785-3.376-5.561-7.259-8.054-3.342-2.148-7.805-6.243-11.554-7.117m0.182 1.259c4.099 2.657 8.222 5.282 12.333 7.919 1.782 1.145 3.563 2.289 5.348 3.431 0.781 0.503-1.822 10.323-3.192 11.261-2.293-2.257-9.366-8.709-13.079-8.305-3.649 0.395-9.02 7.624-10.881 10.212-3.405-5.413-6.815-10.685-10.64-15.805 6.71-2.885 13.401-5.822 20.111-8.713" fill="#ccc"/>
   <path d="m26.16 63.675c6.3 12.491 14.626 24.167 22.325 35.825 5.254-7.044 8.396-15.868 10.073-24.409 0.752-3.822 1.194-7.703 1.338-11.597 0.021-0.556 3.85 2.529 4.052 2.727 1.376 1.342 3.988 3.792 3.633 5.985-0.356 2.184-5.213 2.658-5.213 4.306 0 2.016 7.429 0.881 5.748 4.479-1.812 3.873-4.862 7.383-7.648 10.573-3.149 3.611-9.471 12.146-14.171 9.426-5.917-3.434-11.75-7.193-16.956-11.65-0.941-0.802-5.203-3.792-4.025-5.433 0.881-1.227 8.026-5.601 4.31-6.47-2.94-0.687-9.074-0.059-8.876-4.505 0.154-3.511 3.064-6.863 5.41-9.257"/>
   <path d="m25.479 62.978c-2.604 2.552-5.714 6.318-5.714 10.156 0 5.271 6.525 4.285 10.002 5.364-4.31 5.584-7.897 5.598-1.545 11.182 2.894 2.546 6.039 4.809 9.235 6.952 2.125 1.428 8.785 7.158 11.255 6.858 2.019-0.25 5.28-3.983 6.715-5.313 3.395-3.138 6.506-6.597 9.314-10.268 4.098-5.354 6.995-8.791-0.771-11.521 5.012-2.99 5.754-5.466 1.575-9.949-1.213-1.302-3.464-3.907-5.397-4.068-2.053-0.17-1.658 6.894-1.846 8.275-1.295 9.479-4.398 19.144-9.789 27.126-7.632-11.58-16.056-23.216-22.081-35.736-0.317 0.317-0.636 0.63-0.953 0.942m3.077 19.262c5.292-4.338 2.814-5.521-2.761-6.39-6.871-1.065-3.045-6.94 0.138-10.508 6.617 12.324 14.614 24.041 22.368 35.678-6.029-3.428-11.939-7.184-17.313-11.581-3.291-2.693-6.337-3.999-2.432-7.199m20.684 17.87c7.674-9.51 10.909-23.438 11.549-35.298 2.443 1.75 8.326 6.289 4.105 8.817-8.143 4.878 1.146 2.842 2.563 6.443-0.484 3.229-4.614 7.163-6.588 9.508-3.466 4.118-7.692 9.055-12.402 11.53 0.259-0.34 0.516-0.67 0.773-1" fill="#4d4d4d"/>
   <path d="m72.611 35.625c0 16.819-14.704 29.945-31.16 29.945s-31.159-13.125-31.159-29.945c0-16.824 14.695-29.961 31.159-29.961 16.466 0 31.16 13.135 31.16 29.961" fill="#fcd095"/>
   <path d="m20.552 24.38c7.105-8.318 19.498-10.375 29.683-7.564 11.167 3.082 16.838 12.109 18.526 23.097 2.482-16.339-11.16-30.507-27.311-30.507-16.169 0-29.785 14.179-27.309 30.521 0.843-5.476 2.771-11.272 6.411-15.547" fill="#ffe2ae"/>
   <path d="m71.489 32.017c-1.729 13.303-9.03 23.476-22.929 25.903-17.01 2.973-34.852-7.91-37.146-25.899-2.506 18.459 14.027 33.795 32.025 32.667 16.633-1.042 30.213-15.796 28.05-32.671" fill="#fabb78"/>
   <path d="m11.379 32.092c-0.813 1.694-0.388 4.029-0.133 5.782-0.153-1.924-0.108-3.868 0.133-5.782m59.651-2.775c3.902 16.911-8.826 33.075-25.636 35.187-9.197 1.158-18.654-1.849-25.357-8.285-6.042-5.805-7.714-13.415-10.608-20.727 0 17.46 15.024 30.912 32.021 30.912 19.038 0 35.268-17.132 31.47-36.502 0.16 0.365 0.134 0.678-0.081 0.944-0.705-0.381-1.307-0.891-1.809-1.529m1.146-1.737c0.034 0.744 0.034 0.744 0 0m-0.031-0.519c0.034 0.558 0.034 0.558 0 0m-0.025-0.303c0.023 0.283 8e-3 0.075 0 0" fill="url(#g)"/>
   <path d="m63.622 9.999c5.319 5.408 8.267 10.125 8.579 18.137-0.016-0.474-6-5.621-6.912-6.364-2.241-1.828-4.825 2.076-7.013 3.194-5.531 2.829-13.938 4.986-20.032 2.97-3.257-1.076-7.037-3.259-10.565-2.187-2.042 0.622-3.348 2.404-4.157 4.288-0.822 1.911-0.941 9.577-2.182 10.387-0.472 0.305-4.476-8.778-5.009-9.587-6.491-9.828-6.333 7.344-5.56 7.149-4.173 1.039-0.913-16.605-0.296-17.99 2.931-6.581 8.27-11.659 14.725-14.747 11.676-5.586 28.907-4.993 38.422 4.75" fill="#c48e53"/>
   <path d="m8.384 30.29c0.077 1.786 1.136 3.766 1.136 5.424-0.226-0.53 1.01 2.457 1.264 2.265 0.409-2.72-1.855-5.035-2.4-7.689m55.033-12.057c-0.721 0-3.177 2.711-3.924 3.174-2.185 1.352-4.615 2.295-7.086 2.98-6.548 1.815-11.752 1.105-18.231 0.036-3.759-0.618-7.025-2.871-9.781 0.793-1.062 1.411-3.777 12.553-3.482 12.553-1.411 0-4.004-8.16-4.756-9.373-0.889-1.438-3.605-3.591-5.321-2.227-1.774 1.408-0.872 5.2-0.59 7.035-0.751-3.993 1.699-5.624 5.019-3.552 1.301 1.246 4.823 10.945 6.019 10.797 0.411-0.095 1.97-10.09 2.811-11.573 1.166-2.063 3.036-3.384 5.443-3.384 4.122 0.141 7.688 3.068 11.764 3.068 5.175 0 10.479-0.783 15.271-2.802 1.598-0.674 5.926-4.838 7.173-4.838 3.266-0.635 5.41 7.404 8.341 7.404 0.459 0-0.302-4.381-0.354-4.673 0.413 0.763 0.419 1.427 0.021 1.993-3.103-1e-3 -4.854-7.411-8.337-7.411" fill="url(#h)"/>
   <path d="m59.351 18.681c0 9.547-35.024 8.686-35.024 0.637 6.436 1.407 13.557 2.576 20.138 1.896 1.709-0.179 14.886-4.899 14.886-2.533" fill="#d8ac77"/>
   <path d="m71.406 21.989c0.609 2.588 0.999 5.299 1.515 7.914-0.166-2.684-0.604-5.375-1.515-7.914" fill="#f3d4b2"/>
   <path d="m12.264 28.514c-0.528 0-0.836 3.203-0.885 3.578-0.09 0.191 0.035-0.089 0.035-0.072 0.582-1.128 1.774-1.125 2.83-0.741 0.385-2.068 0.415-2.765-1.98-2.765m49.072-5.466c-3.649 2.822-8.339 4.23-12.832 4.95-6.579 1.059-10.14-0.625-16.375-2.154-8.283-2.032-10.009 7.094-10.484 13.461 0.149 0.612 0.017 0.993-0.398 1.147-2.193-2.625-2.904-6.314-4.689-9.258-0.333 0.809 4.18 11.774 5.446 11.774 2.313 0 0.169-16.826 10.332-14.734 6.244 1.282 10.115 3.344 16.749 2.308 4.873-0.763 10.139-2.325 13.884-5.695-0.51-0.631-1.053-1.23-1.633-1.799m3.021-1.924c2.12 3.006 4.094 5.522 6.673 8.193-0.732-3.177-3.751-6.601-6.673-8.193" fill="#f2bd7e"/>
   <path d="m14.691 29.317c-0.822 3.042-0.695 1.279 1.447 2.943 0.562-1.506-0.133-2.217-1.447-2.943m49.053-8.397c-0.658 0-1.923 1.753-2.408 2.128 0.58 0.569 1.123 1.168 1.631 1.8 1.647-1.48 1.63-1.839 3.483-0.201-0.425-0.862-1.468-3.727-2.706-3.727" fill="#f3c58a"/>
   <path d="m11.247 37.874c0.108 0.862 0.215 1.724 0.324 2.585-0.04-0.868-0.149-1.73-0.324-2.585m0.167-5.857" fill="#f1b26f"/>
   <path d="m12.067 28.524c-2.128 0.194-1.916 3.371-1.805 4.795-3e-3 -0.02 0.757 4.505 0.521 4.66-0.395-0.733-0.927-1.43-1.261-2.252 0.125 0.569 1.113 4.792 1.998 4.792-1.466 0 0.244-10.834 0.547-11.995m60.056-1.766c0.033 0.46 0.059 0.917 0.078 1.377 0.019 0.119-0.021 0.181-0.116 0.188-0.678-0.362-1.259-0.849-1.74-1.464 0.28 0.849 0.776 3.986 2.495 3.986 0.512 1e-3 -0.644-3.85-0.717-4.087" fill="url(#i)"/>
   <path d="m21.384 40.387c-0.04 0.043-0.085 0.066-0.138 0.066 0.046-0.023 0.092-0.047 0.138-0.066m-10.695-2.441c0.025 0.014 0.049 0.027 0.074 0.04-0.025-0.013-0.049-0.026-0.074-0.04m-0.669-1.124c0.066 0.125 0.132 0.253 0.197 0.378-0.066-0.125-0.132-0.253-0.197-0.378m-0.191-0.391c0.107 0.216 0.107 0.216 0 0m-0.186-0.415c0.14 0.313 0.14 0.313 0 0m-0.122-0.299c0 0.013 0.196 0.496 0 0m2.743-7.203c-0.367 0.118-0.731 0.237-1.099 0.355 1.608-0.753 4.512 1.042 4.098 0.783-0.904-0.648-1.904-1.029-2.999-1.138m59.895-0.213c-0.025 6e-3 -0.05 0.016-0.074 0.023 0.024-7e-3 0.049-0.017 0.074-0.023m0.011-0.82c7e-3 0.132 7e-3 0.132 0 0m-0.037-0.588c0.014 0.224 0.014 0.224 0 0m-42.41-1.401c1.674 0.118 3.292 0.486 4.853 1.108-1.559-0.556-3.184-1.062-4.853-1.108m-0.187 0c-0.239 0-0.239 0 0 0m38.694-0.872c0.422 0.451 0.847 0.901 1.27 1.352-0.423-0.451-0.845-0.901-1.27-1.352m3.153-2.696c0.362 1.542 0.604 3.101 0.727 4.68-0.073-0.915-0.376-3.763-0.727-4.68m-7.639-1.004c-0.313 0.089-0.313 0.089 0 0" fill="#d69c5d"/>
   <path d="m10.784 37.979c-0.028 0.01-0.028 0.01 0 0m-1.264-2.265c0 0.522 0.903 1.986 1.169 2.232-0.481-0.694-0.872-1.436-1.169-2.232m0.955-0.484c0-0.994 0.416 2.67 0.309 2.749 0.02-0.927-0.084-1.845-0.309-2.749m5.202-5.232c1.042 1.348 4.165 10.455 5.569 10.455-2.731-2.806-2.779-7.591-5.569-10.455m-0.413-0.346m-4.098-0.782c-1.133 0.904-1.116 3.223-0.903 4.45-0.102-1.29-0.288-3.49 0.903-4.45m61.035-0.734c-0.056 0.217-0.056 0.217 0 0m-2.701-2.164c0.464 0.572 1.776 2.352 2.585 2.352-0.995-0.629-1.857-1.414-2.585-2.352m-40.144-0.48c-2.335 0.055-4.134 1.387-5.264 3.384-0.841 1.482-2.399 11.478-2.811 11.573 0.375-0.197 0.495-0.579 0.362-1.144 0.335-4.752 1.261-13.662 7.713-13.813m0.18 0c0.381-4e-3 0.761 0.023 1.139 0.075-0.38-0.026-0.759-0.052-1.139-0.075m33.973-4.506c-4.37 2.914-7.434 5.437-12.866 6.61-7.437 1.608-11.796-0.243-18.807-1.822 6.264 1.415 9.976 3.289 16.602 2.233 6.354-1.009 10.007-3.647 15.071-7.021m0.236-0.066c-1e-3 0-1e-3 0 0 0 1.894 0.753 3.253 2.438 4.649 3.875-0.898-0.924-3.058-3.875-4.649-3.875" fill="url(#j)"/>
   <path d="M 9.21,32.921 C 9.21,14.215 27.629,1.646 45.221,3.673 64.414,5.886 79.25,25.432 70.753,44.235 82.32,23.429 62.909,0 41.124,0 19.337,0 0.132,23.502 11.663,44.238 10.059,40.689 9.21,36.819 9.21,32.921" fill="url(#l)"/>
   <g transform="matrix(.97796 -.20879 .20879 .97796 -112.85 15.684)">
    <g transform="matrix(.32556 0 0 .32556 91.141 62.228)">
     <g transform="matrix(.87814 0 0 .87814 -39.242 47.013)" fill-rule="evenodd">
      <path d="m23.131 243.78c-0.52095-10.241 14.104-23.736 35.913-23.736h131.17l-0.26085-172.8h-130.91c-22.638 0-37.519 14.61-35.771 24.959"/>
      <path d="m44.285 86.942c-11.214 0-17.875-4.517-18.315-9.5712-0.91347-10.484 12.088-24.054 33.949-23.688h124.49l-0.67607 2.6471-2.3215 1.2976 0.0663 2.2919 0.52275 2.6471-2.477 1.5107-0.3251 2.7183-2.6727 1.2254 0.0662 2.2919-0.9772 2.0786 0.52275 2.6471-2.477 1.5107 0.52275 2.6471-0.9772 2.0786-3.5204 1.2976 1.566 2.8604-2.477 1.5107z" fill="#fff" stroke="#000" stroke-width="1.5652"/>
      <path d="m184.41 217.65-0.78144 2.6471-2.2162 1.2976 0.0662 2.2919 0.52275 2.6471-2.477 1.5107-0.3251 2.7183-2.6727 1.2254 0.0663 2.2919-0.97719 2.0786 0.52275 2.6471-2.477 1.5107 0.52275 2.6471-0.97719 2.0786-3.5204 1.2976 1.566 2.8604-2.477 1.5107v-163.96l2.477-1.5107-1.566-2.8604 3.5204-1.2976 0.97719-2.0786-0.52275-2.6471 2.2198-1.5341-0.2655-2.6237 0.97719-2.0786-0.0663-2.2919 2.6727-1.2254 0.3251-2.7183 2.477-1.5107-0.52275-2.6471-0.0662-2.2919 2.3466-1.2976 0.65099-2.6471z" fill="#fff" stroke="#000" stroke-width="1.5652"/>
      <path d="m42.57 255.09h131.17v-172.8h-131.17c-12.334-0.080185-18.289-4.4376-19.297-10.059l-0.14409 171.51c0.29489 6.2284 6.1798 11.263 19.442 11.344z" fill="#005"/>
      <path d="m181.62 58.373-0.21194-0.71538-32.184 0.71538 32.184 0.71538 0.21194-0.71538z"/>
      <path d="m179.2 66.795-0.479-1.1661-72.739 1.1661 72.739 1.1661 0.479-1.1661z"/>
      <path d="m175.82 71.645-0.10187-0.52962-15.47 0.52962 15.47 0.52962 0.10187-0.52962z"/>
      <path d="m181.47 62.422l-0.88243 0.30804c0.29414 15.593 0.58829 31.185 0.88243 46.778l0.88243-46.778c-0.29414-0.10268-0.58829-0.20536-0.88243-0.30804z"/>
      <path d="m178.51 66.565c-0.36195 0.16498-0.7239 0.32996-1.0858 0.49494 0.36195 25.054 0.7239 50.107 1.0858 75.161l1.0858-75.161c-0.36195-0.16498-0.7239-0.32996-1.0858-0.49494z"/>
      <path d="m176.28 71.14-0.644 0.1522 0.89935 22.637 0.39197-22.643-0.64732-0.14596z"/>
     </g>
    </g>
    <g transform="matrix(.051483 0 0 .051483 89.94 102.72)" fill="#f9ff01" stroke="#f9ff01">
     <path d="m117.94 126.47c-5.1124 0.0997-10.139 1.0159-14.938 2.6562-6.3975 2.1871-12.351 5.6769-17.406 10.25-7.7334 7.001-13.229 16.157-15.844 26.062-0.81693 3.0953-1.3523 6.2676-1.5938 9.5-0.55132 7.8595 0.62168 15.76 3.4062 23.094 2.7294 7.1392 6.8753 13.594 12.031 19 5.3291 5.59 11.672 10.017 18.562 13.125 6.8901 3.1078 14.336 4.8932 21.875 5.1875 5.3536 0.1709 10.53-0.65931 15.312-2.2812 4.717-1.6197 8.884-3.7579 12.594-6.0625 65.1-36.745 122.34-64.696 205.25-68.125 82.908 3.4295 140.12 31.38 205.22 68.125 3.7098 2.3046 7.908 4.4428 12.625 6.0625 4.7825 1.6219 9.9589 2.4522 15.312 2.2812 7.5392-0.29428 14.954-2.0797 21.844-5.1875 6.8901-3.1078 13.233-7.535 18.562-13.125 5.1559-5.4064 9.3018-11.861 12.031-19 2.7846-7.3339 3.9576-15.234 3.4062-23.094-0.2414-3.2324-0.77682-6.4047-1.5938-9.5-2.6144-9.9057-8.1103-19.062-15.844-26.062-5.055-4.5731-10.977-8.0629-17.375-10.25-6.3975-2.1871-13.251-3.0644-20.094-2.4688-5.9417 0.58927-11.629 2.33-16.75 5-5.1206 2.67-9.6631 6.2581-13.406 10.562-3.938 4.5286-6.8316 9.7834-8.5312 15.312-1.6996 5.5291-2.2145 11.322-1.5312 17 0.66312 4.9863 2.2811 9.6583 4.625 13.781 2.3439 4.1229 5.4013 7.7088 8.9375 10.594 3.9303 3.2114 8.409 5.3901 13 6.5625s9.2926 1.3516 13.75 0.5625c3.9177-0.74553 7.4597-2.2637 10.5-4.25s5.5918-4.4376 7.5625-7.1562c2.4159-3.3134 3.8162-7.0034 4.375-10.562 0.55886-3.5591 0.28814-7.0048-0.625-10.062-0.87307-2.7851-2.3022-5.0901-3.9062-6.9062-1.604-1.8162-3.3953-3.1408-5.1562-4.0625-1.1834-0.63304-2.395-1.0536-3.5312-1.3125-1.1363-0.2589-2.2137-0.35004-3.1875-0.3125-1.0466 0.0477-1.9372 0.23824-2.6875 0.5-0.75029 0.26176-1.3476 0.57963-1.8125 0.90625-0.92987 0.65327-1.3056 1.2998-1.3125 1.75-7e-3 0.45016 0.36832 0.71189 1.0312 0.90625 0.66293 0.19436 1.6207 0.31832 2.75 0.6875 0.44497 0.14547 0.91594 0.32391 1.375 0.5625 1.0104 0.47615 2.118 1.2876 3.2188 2.4062 0.83273 0.86721 1.6257 1.9314 2.25 3.1562 0.6243 1.2249 1.0856 2.6239 1.1875 4.0312 0.20402 1.6321-0.0141 3.4239-0.65625 5.25-0.64189 1.8261-1.701 3.6664-3.125 5.1562-1.2644 1.3289-2.8492 2.5202-4.625 3.4062-1.7759 0.8861-3.7678 1.4798-5.75 1.625-2.3007 0.25006-4.778-0.0897-7.2188-0.96875-2.4408-0.87906-4.829-2.2878-6.7812-4.125-1.8339-1.7216-3.4197-3.8872-4.5938-6.2812-1.1741-2.3941-1.9538-5.016-2.125-7.6562-0.28148-3.0083 0.20809-6.247 1.3438-9.3438 1.1356-3.0968 2.9187-6.0799 5.2188-8.5312 2.2139-2.3644 4.9835-4.3699 8.0312-5.8438 3.0478-1.4738 6.3828-2.3995 9.7188-2.5938 3.7621-0.30928 7.746 0.31042 11.531 1.7188 3.7853 1.4083 7.3722 3.6175 10.344 6.4062 2.9271 2.7419 5.4038 6.1088 7.1875 9.8438 1.7838 3.735 2.8771 7.8149 3.0938 11.875 0.29113 4.7388-0.46586 9.6371-2.1875 14.125-1.6532 4.3588-4.275 8.4623-7.5625 11.969-6.6289 7.0669-16.336 11.71-25.938 12.188-2.5951 0.17317-5.381-0.21128-8.0938-1.0312-2.7694-0.81891-5.6423-2.2464-8.6562-3.9375-6.3945-3.6318-13.022-8.7344-20.969-13.25-8.5361-4.7775-16.918-10.672-25.875-16.188-49.717-31.113-82.735-61.25-168.53-61.25-85.796 0-118.85 30.137-168.56 61.25-8.9566 5.5158-17.339 11.41-25.875 16.188-7.9466 4.5156-14.574 9.6182-20.969 13.25-3.014 1.6911-5.8869 3.1186-8.6562 3.9375-2.7128 0.81997-5.4674 1.2044-8.0625 1.0312-9.6013-0.47766-19.34-5.1206-25.969-12.188-3.2875-3.5064-5.9093-7.61-7.5625-11.969-1.7216-4.4879-2.4786-9.3862-2.1875-14.125 0.21663-4.0601 1.3412-8.14 3.125-11.875s4.2292-7.1019 7.1562-9.8438c2.9715-2.7887 6.5897-4.9979 10.375-6.4062s7.7379-2.028 11.5-1.7188c3.3359 0.19423 6.671 1.1199 9.7188 2.5938 3.0478 1.4738 5.8173 3.4794 8.0312 5.8438 2.3001 2.4513 4.0831 5.4344 5.2188 8.5312s1.6252 6.3354 1.3438 9.3438c-0.17119 2.6403-0.95091 5.2622-2.125 7.6562-1.1741 2.3941-2.7598 4.5597-4.5938 6.2812-1.9522 1.8372-4.3092 3.2459-6.75 4.125-2.4408 0.87902-4.9493 1.2188-7.25 0.96875-1.9822-0.1452-3.9741-0.7389-5.75-1.625-1.7758-0.88609-3.3293-2.0773-4.5938-3.4062-1.424-1.4898-2.5144-3.3301-3.1562-5.1562-0.64211-1.8261-0.86027-3.6179-0.65625-5.25 0.10193-1.4074 0.5632-2.8064 1.1875-4.0312 0.62429-1.2249 1.4173-2.289 2.25-3.1562 1.1008-1.1186 2.2084-1.9301 3.2188-2.4062 0.45906-0.23859 0.93003-0.41703 1.375-0.5625 1.1293-0.36918 2.1183-0.49314 2.7812-0.6875 0.66293-0.19436 1.0382-0.45609 1.0312-0.90625-7e-3 -0.45018-0.41388-1.0967-1.3438-1.75-0.46494-0.32662-1.0622-0.64449-1.8125-0.90625s-1.6409-0.4523-2.6875-0.5c-0.97383-0.0375-2.0512 0.0536-3.1875 0.3125-1.1362 0.2589-2.3479 0.67946-3.5312 1.3125-1.7609 0.92166-3.5522 2.2463-5.1562 4.0625s-3.0019 4.1211-3.875 6.9062c-0.91314 3.0576-1.2151 6.5034-0.65625 10.062 0.55885 3.5591 1.9591 7.2491 4.375 10.562 1.9707 2.7186 4.5222 5.17 7.5625 7.1562 3.0403 1.9863 6.5823 3.5045 10.5 4.25 4.4574 0.78909 9.159 0.60989 13.75-0.5625s9.0697-3.3511 13-6.5625c3.5362-2.885 6.5936-6.4708 8.9375-10.594 2.3439-4.1229 3.9619-8.795 4.625-13.781 0.68328-5.6778 0.16836-11.471-1.5312-17-1.6996-5.5291-4.562-10.784-8.5-15.312-3.7432-4.3044-8.3169-7.8925-13.438-10.562-5.1206-2.67-10.808-4.4107-16.75-5-1.7106-0.14891-3.4209-0.22073-5.125-0.1875z"/>
     <g transform="translate(1.852)">
      <path d="m37.976 547.28c22.04 27.13 55.665 44.438 93.344 44.438s71.304-17.308 93.344-44.438h-186.69z"/>
      <path d="m131.32 551.14v-262.64" stroke-width="5.4"/>
      <path d="m219.96 549.14-88-260.64" stroke-width="5.4"/>
      <path d="m42.676 549.14 88.004-260.64" stroke-width="5.4"/>
      <path d="m128.92 261.78c-5.3759 0-9.7365 6.3289-9.7365 14.141 0 7.812 4.3606 14.164 9.7365 14.164 0.82671 0 1.6175-0.17874 2.3839-0.46062-4.2065-1.5621-7.3024-7.1039-7.3024-13.703 0-6.5993 3.0959-12.118 7.3024-13.68-0.76642-0.28187-1.5572-0.46061-2.3839-0.46061zm2.3839 0.46061c4.2175 1.5511 7.3275 7.0696 7.3275 13.68 0 6.6107-3.11 12.152-7.3275 13.703 0.77296 0.28706 1.5996 0.46062 2.4341 0.46062 5.3759 0 9.7114-6.3519 9.7114-14.164 0-7.812-4.3355-14.141-9.7114-14.141-0.8345 0-1.6612 0.17356-2.4341 0.46061z"/>
      <path d="m129.62 231.62c-2.6644 1.1656-2.5058 9.7952-0.68959 14.322 1.9775 4.9286 10.132 12.177 0.26816 16.681-9.0519 1.4019-8.8569-13.989-10.885-5.9037-1.4892 5.9373 5.4208 13.152 12.116 13.152 6.6949 0 11.513-4.8721 11.513-12.139 0-4.3343-3.0229-8.4212-6.9823-12.883-4.4422-5.0061-3.9484-13.837-5.3403-13.228z"/>
      <path d="m672.66 547.28c-22.04 27.13-55.665 44.438-93.344 44.438s-71.304-17.308-93.344-44.438h186.69z"/>
      <path d="m579.32 551.14v-262.64" stroke-width="5.4"/>
      <path d="m490.68 549.14 88-260.64" stroke-width="5.4"/>
      <path d="m667.96 549.14-88-260.64" stroke-width="5.4"/>
      <path d="m581.72 261.78c5.3759 0 9.7365 6.3289 9.7365 14.141 0 7.812-4.3606 14.164-9.7365 14.164-0.82671 0-1.6175-0.17874-2.3839-0.46062 4.2065-1.5621 7.3024-7.1039 7.3024-13.703 0-6.5993-3.0959-12.118-7.3024-13.68 0.76642-0.28187 1.5572-0.46061 2.3839-0.46061zm-2.3839 0.46061c-4.2175 1.5511-7.3275 7.0696-7.3275 13.68 0 6.6107 3.11 12.152 7.3275 13.703-0.77296 0.28706-1.5996 0.46062-2.4341 0.46062-5.3759 0-9.7114-6.3519-9.7114-14.164 0-7.812 4.3355-14.141 9.7114-14.141 0.8345 0 1.6612 0.17356 2.4341 0.46061z"/>
      <path d="m581.02 231.62c2.6644 1.1656 2.5058 9.7952 0.68959 14.322-1.9775 4.9286-10.132 12.177-0.26816 16.681 9.0519 1.4019 8.8569-13.989 10.885-5.9037 1.4892 5.9373-5.4208 13.152-12.116 13.152-6.6949 0-11.513-4.8721-11.513-12.139 0-4.3343 3.0229-8.4212 6.9823-12.883 4.4422-5.0061 3.9484-13.837 5.3403-13.228z"/>
     </g>
     <path d="m357.16 26.938c-6.5685 17.143-30 53.431-30 70s13.431 26 30 26 30-9.4315 30-26c0-16.569-23.431-52.857-30-70z"/>
     <rect x="340.73" y="140.93" width="32.857" height="50" ry="14.286"/>
     <circle transform="translate(-4.9866,-5.4997)" cx="362.14" cy="208.79" r="17.857"/>
     <path d="m355.01 216.93h4.2857c7.9143 0 14.286 6.3714 14.286 14.286v331.43c0 7.9143-6.3714 14.286-14.286 14.286h-4.2857c-7.9143 0-14.286-6.3714-14.286-14.286v-331.43c0-7.9143 6.3714-14.286 14.286-14.286z"/>
     <circle transform="translate(-4.9866,380.86)" cx="362.14" cy="208.79" r="17.857"/>
     <path d="m357.16 585.94c-35.982 37.738-70.028 82.55-163.66 88.844-4.0406 5.9887 0 22.188 0 22.188h327.31s4.0406-16.199 0-22.188c-93.629-6.2942-127.67-51.106-163.66-88.844z"/>
     <path d="m138.93 692.93h436.45c7.1011 7.6046 4.0609 22.308 4.0609 30.511-37.004 11.546-443.9 22.14-444.57 0 0.97095-6.7569-3.5728-25.138 4.0609-30.511z"/>
     <path d="m98.931 720.93h516.45c7.1011 8.6147 4.0609 30.308 4.0609 38.511h-524.57c0.97095-6.7569-5.5931-33.138 4.0609-38.511z"/>
    </g>
   </g>
  </g>
 </g>
</svg>
